<?xml version="1.0" encoding="utf-8"?>
<!-- Generator: Adobe Illustrator 28.3.0, SVG Export Plug-In . SVG Version: 6.00 Build 0)  -->
<svg version="1.1" xmlns="http://www.w3.org/2000/svg" xmlns:xlink="http://www.w3.org/1999/xlink" x="0px" y="0px"
	 viewBox="0 0 1117.09 1284.29" style="enable-background:new 0 0 1117.09 1284.29;" xml:space="preserve">
<style type="text/css">
	.st0{display:none;}
	.st1{display:inline;}
	.st2{fill:#FFFFFF;stroke:#FFC72C;stroke-width:10;stroke-miterlimit:10;}
	.st3{fill:#FFFFFF;}
	.st4{clip-path:url(#SVGID_00000127020346436863467700000009256979155151649465_);}
	.st5{fill:#FFC72C;}
	.st6{fill:#CA9C86;}
	.st7{fill:#7C4E4B;}
	.st8{fill:#5C3A38;}
	.st9{clip-path:url(#SVGID_00000127020346436863467700000009256979155151649465_);fill:#B0513D;}
	.st10{fill:#F9E0AB;}
	.st11{fill:#F9D186;}
	.st12{clip-path:url(#SVGID_00000127020346436863467700000009256979155151649465_);fill:#F9E0AB;}
	.st13{clip-path:url(#SVGID_00000127020346436863467700000009256979155151649465_);fill:#5C3A38;}
	.st14{clip-path:url(#SVGID_00000127020346436863467700000009256979155151649465_);fill:#FFC72C;}
	.st15{clip-path:url(#SVGID_00000142145357271075344920000009944518863169598086_);}
	.st16{fill:#FFB71B;}
	.st17{clip-path:url(#SVGID_00000142145357271075344920000009944518863169598086_);fill:#B0513D;}
	.st18{clip-path:url(#SVGID_00000142145357271075344920000009944518863169598086_);fill:#F9E0AB;}
	.st19{clip-path:url(#SVGID_00000142145357271075344920000009944518863169598086_);fill:#5C3A38;}
	.st20{clip-path:url(#SVGID_00000142145357271075344920000009944518863169598086_);fill:#FFB71B;}
</style>
<g id="New_group_00000116956461672652612230000003433164292928097425_" class="st0">
	<g id="Layer_28" class="st1">
	</g>
	<g id="Layer_26_xA0_Image_00000086671053757608093040000008175016823038329759_" class="st1">
	</g>
	<g id="Layer_25_xA0_Image_00000148652030893247044510000008100378896532009105_" class="st1">
	</g>
	<g id="Layer_24_xA0_Image_00000166660645364208200510000012712968781935121590_" class="st1">
	</g>
	<g id="Layer_22_xA0_Image_00000128449595712313065650000015105809583593355415_" class="st1">
	</g>
	<g id="Layer_21_xA0_Image_00000126309981825758816240000005670902189335812788_" class="st1">
	</g>
	<g id="Layer_27_xA0_Image_00000000926701466688969260000015313082093049926814_" class="st1">
	</g>
	<g id="Layer_18_xA0_Image_00000062892755979128543380000005867279691255529140_" class="st1">
	</g>
	<g id="Layer_20_xA0_Image_00000066484989062886322940000017103818965024997778_" class="st1">
	</g>
	<g id="Layer_17_xA0_Image_00000106842151491147159010000012050870598653880460_" class="st1">
	</g>
	<g id="Layer_31" class="st1">
	</g>
	<g id="Layer_16_xA0_Image_00000180333531163564009530000010368359649366290345_" class="st1">
	</g>
	<g id="Layer_29" class="st1">
	</g>
</g>
<g id="Layer_30">
	<circle class="st2" cx="558.55" cy="642.14" r="532.81"/>
	<g>
		<circle class="st3" cx="559.11" cy="642.71" r="445.76"/>
		<g>
			<defs>
				<circle id="SVGID_1_" cx="557.98" cy="641.58" r="445.76"/>
			</defs>
			<clipPath id="SVGID_00000145024061389623687630000001918858414557766058_">
				<use xlink:href="#SVGID_1_"  style="overflow:visible;"/>
			</clipPath>
			<g style="clip-path:url(#SVGID_00000145024061389623687630000001918858414557766058_);">
				<path class="st5" d="M701.5,310.76c56.95,0,103.12,240.09,103.12,536.25h82.49c0-318.94-83.1-577.49-185.61-577.49
					c-58.32,0-110.35,77.7-144.38,199.22c-34.03-121.51-86.07-199.22-144.38-199.22C310.23,269.51,227.1,528.06,227.1,847h82.51
					c0-296.15,46.18-536.25,103.12-536.25c56.95,0,103.14,221.63,103.14,494.99h82.48C598.35,532.38,644.54,310.76,701.5,310.76"/>
			</g>
			<g style="clip-path:url(#SVGID_00000145024061389623687630000001918858414557766058_);">
				<path class="st6" d="M404.97,757.23c-0.53,6.43-0.61,12.93-2.13,19.23c-1.77,7.36-5.2,13.66-11.31,17.75
					c-6.96,4.65-10.15,11.39-10.92,19.92c-0.89,9.88-2.99,19.54-5.29,29.13c-1.27,5.27-4.31,7.05-8.82,4.4
					c-10.35-6.06-19.78-13.38-26.03-24.56c-3.2-5.73-3.82-12.18-4.92-18.51c0.89-0.98,0.79-2.22,0.78-3.43
					c-0.03-4.51-0.06-9.02-0.09-13.52c1.65-3.2,4.73-4.71,7.17-6.95c2.98-2.74,5.77-5.66,8.42-8.76c4.89-5.73,6.1-12.96,7.33-20.22
					c1.52-8.94,2.72-17.94,4.92-26.74c1.46-5.81,3.74-11.19,6.93-16.12c2.39-3.7,5.58-6.5,9.55-7.86c4.84-1.66,9.51-0.59,13.25,3.08
					c5.72,5.63,12.2,8.55,20.02,7.84c1.27-0.11,2.64,0.1,3.85,0.53c1.62,0.58,2.81,1.84,2.87,3.84c0.05,1.77-0.87,3.35-2.3,3.66
					c-5.35,1.15-6.15,5.96-7.85,10.26c-3.16,7.99-4.49,16.38-5.28,24.92C404.24,755.76,404.12,756.46,404.97,757.23z"/>
				<path class="st6" d="M336.23,787.64c0.03,4.51,0.07,9.02,0.09,13.52c0.01,1.21,0.11,2.45-0.78,3.43
					C334.28,798.87,333.29,793.16,336.23,787.64z"/>
				<path class="st6" d="M404.97,757.23c-0.85-0.77-0.72-1.47,0.14-2.1C406.02,755.9,405.93,756.6,404.97,757.23z"/>
			</g>
			<g style="clip-path:url(#SVGID_00000145024061389623687630000001918858414557766058_);">
				<path class="st7" d="M681.55,682.68c-1.39,2.04-3.36,2.36-5.14,2.88c-4.89,1.44-9.88,2.28-15,1.78
					c-2.4-0.24-4.47,0.16-6.25,1.98c-6.86,6.98-16.03,9.91-24.65,13.73c-4.63,2.05-9.05,4.09-13.21,7.17
					c-7.73,5.72-15.78,11.14-24.36,15.53c-14.83,7.58-29.58,15.33-44.83,22.09c-14.65,6.49-28.48,14.64-42.24,22.81
					c-8.18,4.86-15.51,10.87-21.68,18.21c-1.64,1.95-2.73,3.96-2.89,6.57c-0.12,1.94-0.54,3.9-1.13,5.76
					c-1.36,4.35-4.21,5.9-8.71,4.95c-0.64-0.13-1.34-0.25-1.85-0.61c-4.22-2.91-7.81-1.17-11.63,1.1c-2.01,1.2-2.4,2.34-1.71,4.31
					c0.43,1.23,0.81,2.49,1.12,3.76c1.14,4.79-0.41,7.89-4.95,9.79c-1.2,0.5-2.46,0.9-3.72,1.21c-4.7,1.14-4.8,1.1-5.43,5.85
					c-0.95,7.13-2.28,14.18-3.6,21.25c-1.87,9.97-5.94,18.99-10.78,27.74c-1.97,3.57-4.26,6.98-6.52,10.38
					c-1.26,1.9-2.71,3.73-4.74,4.9c-3.25,1.88-6.79,0.16-6.53-3.49c0.35-4.94-1.63-8.97-4.16-12.77
					c-7.64-11.49-16.64-21.83-27.26-30.68c-2.89-2.41-6.29-4.06-9.69-5.68c-3.32-1.59-4.27-3.93-2.02-6.62
					c7.33-8.76,8.88-19.52,10.61-30.13c1.56-9.54,5.07-17.84,12.28-24.44c6-5.49,8.49-12.66,9.41-20.48
					c1.26-10.72,3.13-21.32,5.76-31.8c1.57-6.25,3.85-12.13,7.5-17.46c1.86-2.72,3.19-5.67,3.62-9.01c0.67-5.19,3.6-7.79,8.85-8.9
					c18.67-3.95,37.54-4.87,56.53-4.6c17.65,0.25,35.28,0.2,52.89-1.5c12.19-1.17,24.48-1.33,36.69-2.34
					c15.3-1.26,30.62-2.1,45.9-3.75c11.68-1.26,23.49-1.29,35.26-1.19c6.86,0.06,13.72-0.07,20.59-0.11
					C676.5,680.85,679.02,681.18,681.55,682.68z"/>
			</g>
			<g style="clip-path:url(#SVGID_00000145024061389623687630000001918858414557766058_);">
				<path class="st8" d="M514.45,806.97c-0.71,2.33,0.05,4.65,0.36,7c0.89,6.72-0.87,9.54-6.22,10.06
					c-8.11,0.78-11.31-2.02-13.16-12.01c-1.17-6.28-2.14-12.63-2.95-18.99c-0.22-1.69-0.57-2.84-1.35-3.56
					c-0.8-0.73-1.78-0.86-2.23-0.93c-4.6-0.61-11.73-0.12-16.31-0.08c-2.79,0.02-3.22-0.13-5.81,0c-4.54,0.23-5.25,0.81-6.05,0.24
					c-2.51-1.78-0.43-11.02,4.51-18.42c5.08-7.62,11.97-11.18,12.95-11.92c29.74-22.29,59.91-43.66,90.66-63.73
					c31.33-20.44,62.72-40.7,93.84-61.63c20.94-14.08,42.45-26.74,64.42-38.23c10.97-5.74,21.79-11.92,32.67-17.89
					c2.39-1.31,4.9-2.34,7.16-3.92c8.75-6.09,17-3.88,24.99,2.15c11.59,8.74,23.78,16,36.19,22.75c2.03,1.11,3.61,1.13,5.44-0.46
					c4.55-3.94,9.2-7.67,13.78-11.55c4.73-4.01,9.61-6.27,14.7-6.69c3.95-0.33,7.15,0.5,12.29,2.42
					c15.62,5.84,23.38,8.89,28.46,13.47c6.28,5.67,6.9,9.59,10.96,15.04c3.2,4.3,4.71,4.88,6.73,7.16
					c11.87,13.4,10.05,30.5,14.33,30.74c2.08,0.11,2.44-3.93,8.14-11.08c4.79-6.01,8.16-10.23,13.03-11.08
					c5.23-0.91,6.77,3.03,20.85,9.12c7.06,3.06,7.53,2.44,12.38,4.89c0,0,9.34,4.72,16.62,12.38c10.28,10.83,3.94,26.56,3.94,77.24
					c0,14.3-0.16,28.69-2.2,42.84c-0.86,5.95-1.87,11.87-3.09,17.72c-1.93,9.25-11.1,13.04-18.36,7.53c1.79-2.85,5.1-3.53,6.94-7.37
					c-8.04-1.76-15.67-3.49-23.31-5.09c-21.57-4.51-43.27-4.17-65.02-2.94c-17.79,1.01-35.6,1.69-53.4,2.61
					c-38.86,2-77.7,4.54-116.5,7.85c-17.28,1.47-34.55,2.99-51.85,4.16c-9.15,0.62-18.3,0.57-27.45,0.33
					c-19.77-0.52-39.55-0.31-59.33-0.32c-20.75-0.01-41.51-0.57-62.19-3.01c-0.81-0.1-1.65-0.01-2.44-0.21
					c-2.7-0.68-3.29,0.99-3.5,3.96c-0.41,5.89-1.1,9.04-2.99,10.23c-0.8,0.51-1.3,0.03-4.51-0.4
					C518.03,807.03,515.9,806.97,514.45,806.97z"/>
			</g>
			<g style="clip-path:url(#SVGID_00000145024061389623687630000001918858414557766058_);">
				<g>
					<path class="st5" d="M620.65,768.39c3.39-3.18,7.59-4.43,10.35-8.23c2.32-3.2,6.32-4.04,10.17-1.94
						c1.54,0.84,3.01,1.03,4.68,0.84c3.31-0.36,6.22,0.53,8.17,3.37c0.94,1.37,1.9,1.95,3.61,1.83c3.05-0.21,5.85,0.84,8.13,2.82
						c1.78,1.54,3.45,2.18,5.75,1.23c1.17-0.48,2.56-0.43,3.85-0.65c3.05-0.52,5.72,0,8.19,2.15c2.57,2.23,5.75,0.88,6.18-2.47
						c0.57-4.42,1.96-8.27,6.35-10.31c1.2-0.56,1.3-1.78,1.78-2.79c2.18-4.53,5.62-7.15,10.83-6.86c1.67,0.09,3.15-0.2,4.73-0.82
						c3.07-1.2,5.81-0.31,7.93,2.19c1.16,1.37,2.4,2.77,3.12,4.37c1.48,3.3,3.04,6.38,6.55,8.05c0.78,0.37,1.68,1.5,1.69,2.29
						c0.06,5.24,6.44,7.43,6.04,12.81c-0.06,0.82,0.15,1.58,1.04,2.41c2.09-1.69,2.8-4.42,5.03-5.81c2.12-1.33,4.46-1.86,7.19-2.13
						c-0.15-1.71-0.27-3.13-0.39-4.55c-0.04-0.49-0.08-0.98-0.11-1.47c-0.11-1.99-0.3-4.43,1.06-5.65
						c3.82-3.42,3.03-9.23,6.94-12.48c3.23-2.69,14.19-4.68,18.2-3.46c3.05,0.93,4.43,3.82,6.78,5.33c2.16,1.38,5.44,0.62,7.65,2.72
						c1.84,1.74,3.34,3.73,3.55,6.25c0.24,2.88,1.88,4.75,3.79,6.58c1.27,1.22,2.59,1.76,4.41,1.21c4.77-1.45,9.54-2.48,14.1,0.74
						c0.91,0.64,1.9,0.26,2.77-0.23c0.99-0.56,1.94-1.21,2.92-1.8c6.05-3.6,11.97-4.2,17.54,0.82c1.63-0.57,1.65-2.04,1.99-3.23
						c0.87-3.07,1.97-5.94,5.23-7.25c1.12-0.45,1.18-1.46,1.38-2.4c1.68-7.95,11.73-10.68,18.21-6.42c1.23,0.81,2.37,1.61,3.94,1.78
						c5.54,0.58,8.23,4.3,9.39,9.27c0.57,2.44,1.08,4.47,3.57,5.9c2.51,1.44,3.57,4.25,3.79,7.11c0.21,2.68,1.5,2.89,3.59,2.1
						c3.4-1.28,6.87-2.02,10.55-1.76c1.98,0.14,4.04,0.19,5.67,1.28c2.09,1.4,3.52,0.89,5.1-0.73c0.77-0.79,1.84-1.49,2.9-1.77
						c4-1.04,7.29-2.68,9.07-6.87c0.83-1.94,3.23-2.56,5.41-2.96c1.55-0.28,3.02-0.45,4.37-1.79c5.11-5.06,12.26-5.14,17.43-0.22
						c1.66,1.58,2.95,2.41,5.46,1.86c4.18-0.91,7.66,1.13,10.38,4.21c1.4,1.59,2.64,2.2,4.57,1.03c0.81-0.49,1.87-0.88,2.78-0.82
						c2.68,0.19,4.35-1.03,6.22-2.89c5.1-5.06,13.97-2.94,16.95,4.15c1.81,4.29,3.27,8.76,2.67,13.75c-0.64,5.33-0.49,10.75-1,16.13
						c-0.87,9.3-6.1,14.86-14.49,17.77c-5.08,1.76-10.32,3.06-15.51,4.52c-34.59,9.68-68.86,20.4-103.09,31.28
						c-19.6,6.23-39.31,12.06-59.18,17.44c-15.88,4.3-31.71,9.04-46.71,16.07c-7.7,3.61-15.79,6.18-23.98,8.5
						c-13.2,3.74-25.87,9.06-38.81,13.57c-8.68,3.03-17.59,4.91-26.47,7.02c-0.63,0.15-1.41,0.51-1.91,0.29
						c-4.32-1.89-7.94,0.58-11.71,1.85c-21.54,7.24-41.98,17.21-63.04,25.65c-8.64,3.46-17.36,6.71-25.55,11.21
						c-3.02,1.66-5.95,3.41-8.67,5.52c-1.43,1.11-2.81,2.2-3.35,4.08c-0.67,2.33-2.23,3.57-4.73,3.35c-2.23-0.2-3.87-1.83-4.02-4.81
						c-0.21-4.07-0.18-8.18,0.14-12.24c0.97-12.24,0.82-24.49,0.97-36.75c0.09-8.17,0.38-16.33,0.54-24.49
						c0.1-5.18-0.59-10.11-4.41-14.09c-2.23-2.32-1.54-6.38-4-8.2c-2.25-1.66-5.69-1-8.34-2.41c-1.48-0.78-3.22-1.63-3.54-3.2
						c-1-4.9-4.84-8.99-4-14.37c0.19-1.23-0.16-2.23-1.09-3.07c-2.75-2.46-3.21-5.73-2.53-9.02c0.92-4.38,0.03-8.46-1.37-12.49
						c-1.63-4.7-2.25-9.23,1.15-13.45c0.8-0.99,0.83-2.03,0.5-3.22c-1.86-6.71-1.09-12.66,5.16-16.89c1.52-1.03,1.4-2.47,1.24-3.93
						c-1.22-11.03,4.91-18.22,12.92-24.23c6.04-4.52,16.75-4.15,21.31,4.26c2.16,3.99,5.92,5.39,9.36,7.47
						c1.17,0.71,1.79,0.18,2.29-0.81c2.31-4.56,6.12-6.13,11-5.38c1.85,0.28,3.1-0.1,3.93-1.94c0.52-1.16,1.41-2.21,2.33-3.12
						c3.92-3.92,9.06-3.98,13.03-0.09c1.17,1.15,2.13,2.29,3.96,2.56C615.75,759.24,619.3,762.41,620.65,768.39z"/>
				</g>
			</g>
			<path style="clip-path:url(#SVGID_00000145024061389623687630000001918858414557766058_);fill:#B0513D;" d="M348.54,830.28
				c2.64,0.23,4.89,0.61,7.14,0.58c7.08-0.09,14.1,0.57,20.91,2.68c13.11,4.07,24.3,11.25,30.47,25.74
				c3.28,7.71,9.04,10.6,16.11,10.88c7.96,0.32,13.47,4.87,17.5,12.16c1.28,2.32,2.55,4.73,3.39,7.27c1.72,5.24,4.47,9.71,7.42,14.1
				c2.2,3.28,4.29,6.67,6.35,10.07c2.26,3.72,5.16,6.56,8.52,9c2.71,1.96,5.05,4.55,7.69,6.65c2.29,1.82,4.67,3.58,7.19,4.93
				c5.36,2.87,10.84,5.47,16.28,8.15c3.71,1.83,7.4,3.74,11.18,5.39c4.71,2.05,5.5,3.09,5.73,8.56c0.39,9.7-3.9,15.22-12.55,15.78
				c-13.93,0.89-27.84,0.38-41.78-0.46c-11.07-0.67-22.21-0.08-33.31-0.19c-17.88-0.18-35.75-0.51-53.63-0.69
				c-6.77-0.07-13.54,0.11-20.31,0.2c-2.44,0.03-4.87,0.22-7.31,0.23c-22.22,0.02-44.44,0.2-66.65-0.05
				c-17.06-0.19-34.11-1.18-51.17-1.3c-11.09-0.08-22.18,0.76-33.27,1.19c-9.47,0.36-18.95,0.82-28.43,1.05
				c-15.3,0.38-30.6,0.77-45.91,0.84c-8.53,0.04-17.04-0.78-25.44-2.58c-1.19-0.26-2.39-0.55-3.54-0.99
				c-3.07-1.19-4.17-2.77-4.1-6.43c0.26-12.35,0.54-24.69,0.96-37.04c0.28-8.29,2.84-15.29,9-20.53c4.92-4.18,8.35-9.95,11.24-16.06
				c1.97-4.17,3.8-8.42,5.76-12.6c5.12-10.94,11.87-20.38,20.64-27.89c9.06-7.76,18.19-15.37,28.82-20.35
				c5.41-2.53,10.13-6.4,14.57-10.71c2.62-2.54,3.91-5.68,4.21-9.53c0.52-6.52,0.84-13.1,1.89-19.52
				c0.88-5.34,2.45-10.59,4.19-15.68c1.31-3.82,3.99-6.21,7.78-7.29c2.82-0.81,5.43-2.64,8.07-4.18c5.2-3.03,10.51-5.79,16.46-6.01
				c3.2-0.12,6.42,0.37,9.62,0.75c3.08,0.36,6.14,1.17,9.22,1.33c3.84,0.2,4.34-0.4,5.64-4.36c0.8-2.43,1.59-4.86,2.46-7.26
				c0.85-2.35,2.27-4.17,4.43-5.08c5.68-2.4,11.45-3.36,17.5-1.94c4.36,1.02,7.3,3.76,9.08,8.24c0.44,1.11,0.86,2.24,1.22,3.39
				c1.99,6.41,2.63,6.98,8.78,6.98c7.04,0,14.05,0,21.01,1.71c4.26,1.04,7.5,3.27,9.67,7.5c2.32,4.51,5.63,7.67,9.93,9.69
				c6.11,2.88,9.95,7.86,10.19,15.61c0.16,5.1,1.62,9.4,4.83,13.13c2.52,2.94,3.52,6.71,3.57,10.89
				C347.83,820.59,348.24,824.99,348.54,830.28z"/>
			<g style="clip-path:url(#SVGID_00000145024061389623687630000001918858414557766058_);">
				<path class="st5" d="M503.64,818.2c1.72-2.08,1.51-3.99,1.98-5.69c1.23-4.4,3.85-6.22,8.31-5.76c1.95,0.2,3.9,0.37,5.84,0.6
					c3.73,0.45,5.05,1.9,5.25,5.74c0.04,0.81,0.13,1.66-0.02,2.45c-0.55,2.94,0.08,5.34,2.34,7.52c2.71,2.61,3.2,6.03,2.05,9.54
					c-0.95,2.93-1.41,5.36,1.23,7.96c2.14,2.11,2.12,5.34,1.9,8.36c-0.24,3.29,0.89,4.75,4.05,5.51c0.79,0.19,1.61,0.25,2.43,0.33
					c5,0.49,8.68,2.59,10.02,7.83c0.27,1.07,0.93,2.13,1.66,2.97c3.67,4.23,4.67,9.27,4.54,14.62c-0.55,22.39-0.16,44.76,1.07,67.12
					c0.07,1.3,0.04,2.61,0.11,3.92c0.16,2.86-1.54,4.38-3.76,5.77c-12.3,7.73-24.6,15.48-36.8,23.37
					c-8.91,5.76-17.96,11.38-24.86,19.7c-0.75,0.91-1.8,1.4-2.91,1.73c-9.01,2.68-17.85,4.13-27.34,1.1
					c-26.13-8.33-51.98-17.44-77.91-26.33c-20.68-7.09-41.43-14.06-63.06-17.82c-5.14-0.89-10.34-1.48-15.32-3.19
					c-2.87-0.99-5.45,0.53-8.11,1.12c-1.74,0.39-3.39,1.22-5.13,1.57c-1.89,0.38-3.68-0.05-4.45-2.08c-0.77-2.03,0.2-3.48,1.94-4.49
					c2.55-1.48,5.34-2.38,8.12-3.35c20.5-7.09,41.34-13.41,60.56-23.71c14.3-7.67,27.88-16.43,38.54-28.98
					c7.16-8.42,12.87-17.71,16.12-28.33c3.88-12.66,7.42-25.39,8.15-38.74c0.28-5.15,2.02-6.73,7.06-7.92
					c0.48-0.11,0.95-0.26,1.42-0.37c5.52-1.27,5.53-1.27,5.41-7.1c-0.06-3.1-0.21-6.21-0.22-9.31c-0.02-4.33,1.49-6.4,5.77-7.16
					c5.94-1.04,11.73-1.11,15.69,5.72c0-3.3-0.07-5.7,0.01-8.1c0.16-4.86,1.88-6.99,6.54-7.62c8.44-1.15,16.89-1.35,25.41-0.45
					c5.46,0.58,8.58,3.37,10.23,8.38c2.04,6.21,4.28,12.34,5.01,18.9C502.65,814.99,503.18,816.38,503.64,818.2z"/>
			</g>
			<g style="clip-path:url(#SVGID_00000145024061389623687630000001918858414557766058_);">
				<path class="st10" d="M696.75,839.52c17.17,0.38,34.64,0.61,52.09,1.23c7.15,0.25,14.27,1.33,21.4,2.1
					c4.21,0.45,8.39,1.18,12.6,1.5c13.03,1.01,26.08,1.52,39.15,1.04c8.64-0.32,17.31,0.47,25.93-0.77
					c3.33-0.48,6.47,0.52,9.53,1.73c3.08,1.22,3.66,2.96,1.49,5.55c-2.22,2.64-5.1,4.59-8.18,6.11c-9.8,4.84-19.71,9.41-29.71,13.84
					c-10.92,4.84-22.42,8.04-33.39,12.68c-3.76,1.59-7.42,3.39-11.09,5.18c-17.46,8.56-35.36,16.04-53.66,22.6
					c-15.97,5.72-31.87,11.58-47.36,18.61c-16.8,7.63-33.64,15.19-50,23.7c-17.43,9.08-35.48,16.48-54.01,22.94
					c-15.1,5.26-29.76,11.54-43.69,19.61c-9.55,5.53-19.42,10.97-30.37,13.33c-6.81,1.47-13.86,1.96-20.83,2.56
					c-5.2,0.45-10.36,1.15-15.53,1.73c-7.16,0.79-14.34,0.91-21.28-1.69c-5.04-1.89-10.11-3.72-15.18-5.51
					c-5.59-1.97-10.62-4.94-15.58-8.14c-11.15-7.2-23.1-12.82-35.45-17.66c-5.19-2.04-10.09-4.69-14-8.78
					c-2.31-2.41-2.04-4.29,0.73-5.9c13.7-7.99,26.64-17.1,39.62-26.17c21.57-15.07,44.32-28.25,66.88-41.74
					c14.71-8.79,29.34-17.75,44.56-25.67c24.01-12.49,48.82-22.57,75.9-26.24c11.77-1.59,23.45-3.9,35.23-5.43
					c6.61-0.86,13.34-0.97,20.02-1.14c9.15-0.24,18.34,0.25,27.44-0.46C678.84,839.56,687.64,839.81,696.75,839.52z"/>
			</g>
			<g style="clip-path:url(#SVGID_00000145024061389623687630000001918858414557766058_);">
				<path class="st11" d="M1001.25,827.36c-0.1,7.68,0.99,13.58,0.72,19.39c-0.71,15.17-0.06,30.37-1.36,45.53
					c-0.47,5.5-0.46,11.09,0.25,16.64c0.31,2.42,0.43,4.92,0.16,7.34c-0.95,8.64-0.28,17.31-0.73,25.95
					c-0.91,17.46-0.84,34.94-1.14,52.41c-0.1,5.75-2.19,6.54-7.86,4.53c-7.13-2.53-14.5-4.18-22.28-3.32
					c-23.09,2.55-46.02,6.19-68.97,9.7c-10.89,1.67-21.64,4.28-32.55,5.97c-13.87,2.14-27.76,3.8-41.82,3.71
					c-4.96-0.03-9.92-0.24-14.87-0.1c-13.68,0.4-27.31,1.44-40.95,2.57c-9.48,0.78-19.05,2.03-28.64,0.69
					c-2.76-0.38-5.63-0.32-8.41-0.07c-18.15,1.58-36.33,0.88-54.47,0.39c-9.4-0.25-18.81-0.34-28.21-0.75
					c-11.2-0.48-22.34-1.71-33.47-3.1c-6.7-0.84-13.39-1.78-20.09-2.54c-9.83-1.11-19.55-2.88-29.31-4.44
					c-4.88-0.78-9.74-1.58-14.73-1.5c-13.7,0.23-27.34-1.8-41.07-1.03c-5.59,0.31-11.17,1.18-16.8,0.84
					c-1.48-0.09-2.94,0.02-4.39-0.49c-3.1-1.07-4.49-4.44-1.89-7.38c6.98-7.88,15.72-13.42,24.5-18.94
					c9.06-5.69,18.19-11.26,27.33-16.82c23.26-14.16,47.63-26.09,73.17-35.68c15.58-5.85,31.21-11.58,47.12-16.51
					c14.79-4.58,29.78-8.49,44.71-12.59c16.52-4.54,32.85-9.77,49.11-15.17c20.17-6.7,40.23-13.72,60.22-20.93
					c6.18-2.23,11.98-5.47,17.92-8.31c7.3-3.5,15-6,22.68-8.45c18.68-5.94,37.48-11.46,55.78-18.61
					c13.48-5.26,27.7-8.46,41.68-12.32c14.45-3.98,29.07-7.33,43.42-11.67c3.58-1.08,4.14-0.81,4.19,2.88
					C1000.31,813.2,1001.96,821.13,1001.25,827.36z"/>
			</g>
			<g style="clip-path:url(#SVGID_00000145024061389623687630000001918858414557766058_);">
				<path class="st11" d="M498.77,1009.8c-0.25,1.3-0.78,1.37-1.24,1.38c-12.43,0.27-24.86,0.44-36.79-3.97
					c-2.97-1.1-5.84-0.97-9.05-0.53c-25.24,3.49-49.88,10-74.91,14.54c-12.99,2.35-26.16,3.69-39.24,5.59
					c-13.88,2.02-27.86,3.24-41.75,5.28c-12.56,1.84-25.06,4.68-37.88,4.46c-7.5-0.13-14.95-1.15-22.51-0.54
					c-5.12,0.41-8.04-2.9-8.31-8.22c-0.23-4.57-0.29-9.13-0.67-13.7c-0.44-5.39-1.1-10.7-2.28-15.98c-0.96-4.3-1.08-8.66-0.41-13.13
					c0.62-4.17,0.36-8.48,0.45-12.73c0.04-1.64-0.04-3.29,0.72-4.8c1.04-2.07,2.64-3.74,5.02-2.81c2.22,0.87,3.71-0.04,5.47-0.92
					c15.17-7.58,31.45-10.97,48.2-11.72c12.43-0.55,24.72,1.34,36.8,4.53c12.46,3.29,24.99,6.28,37.61,8.97
					c9.72,2.07,18.98,6.01,28.29,9.55c10.07,3.84,19.96,8.16,30.06,11.91c13.16,4.88,26.72,8.48,40.24,12.26
					c12.58,3.52,25.6,5.1,38.03,9.18C495.99,1008.83,497.35,1009.31,498.77,1009.8z"/>
			</g>
			<g style="clip-path:url(#SVGID_00000145024061389623687630000001918858414557766058_);">
				<g>
					<path class="st5" d="M1010.2,1012.88c0.61,10.15-0.76,21.21-1.17,32.3c-0.33,8.93-1.71,17.83-1.77,26.81
						c-0.03,3.86-1.65,4.9-5.77,4.98c-13.7,0.25-27.36-0.81-41.03-1.29c-15.44-0.55-30.53,1.3-45.65,3.68
						c-12.16,1.92-24.27,4.11-36.51,5.48c-13.75,1.54-27.55,2.26-41.35,3.14c-13.87,0.89-27.71,0.63-41.57,0.78
						c-6.18,0.06-12.34,0.87-18.49,0.72c-34.25-0.87-68.51-0.42-102.76-1.07c-9.5-0.18-19.05-0.08-28.51-0.92
						c-9.18-0.81-18.39,10.3-27.51,9.5c-10.01-0.87-20.06-0.16-30.02-1.02c-11.69-1-23.38-0.3-35.04-0.92
						c-14.69-0.78-29.4-0.31-44.07-1.07c-7.84-0.4-15.69-0.33-23.5-0.87c-14.65-1.01-29.32-11.83-43.98-12.57
						c-11.36-0.58-22.72-0.14-34.04-0.88c-25.05-1.63-50.11-0.51-75.17-0.66c-4-0.02-7.98,0.07-11.99,0.56
						c-3.76,0.46-7.67,0.56-11.48-0.27c-5.37-1.17-10.67,0.17-15.91,0.83c-5.17,0.65-10.32,0.85-15.48,0.79
						c-9.36-0.1-18.69,0.28-28.02,0.86c-3.56,0.22-6.94-0.71-10.37-1.36c-8.39-1.58-11.55-7.63-13.07-14.92
						c-2.12-10.2-0.93-20.53-0.87-30.79c0.03-4.67,3.34-6.82,8.14-6.07c2.83,0.44,5.67,0.37,8.5,0.08
						c14.76-1.52,29.51-3.64,44.37-2.62c5.51,0.38,10.93,0.23,16.36-0.17c9.62-0.71,19.21-1.86,28.84-2.6
						c8.14-0.63,16.14-2.2,24.35-2.48c11.69-0.4,22.93-3.84,34.38-5.86c19.5-3.45,38.69-8.44,58.28-11.31
						c12.01-1.76,24.15-2.62,36.3-3.38c9.85-0.62,19.7-1.21,29.5-0.56c12.79,0.85,25.61,0.91,38.4,2.43
						c13.89,1.65,27.71,3.55,41.49,5.91c4.38,0.75,8.9,1.14,13.42,1.34c7.48,0.33,14.93,1.32,22.41,1.77
						c8.66,0.52,17.34,0.69,26.01,1.12c38.58,1.91,77.19,0.8,115.79,0.81c14.97,0,29.96-1.05,44.91-2.51
						c8.11-0.79,16.26-1.32,24.37-2.25c7.6-0.87,15.2-1.81,22.8-2.67c3.97-0.45,7.97-0.69,11.94-1.06
						c19.43-1.81,38.64-4.73,57.57-9.47c10.32-2.59,20.78-4.28,31.55-4.74c9.01-0.38,18.01-0.58,27.01-0.8
						c4.39-0.11,8.61,0.95,12.92,1.33c3.88,0.34,5.42,2.42,5.46,6.28C1010.24,1002.1,1010.2,1007,1010.2,1012.88z"/>
				</g>
			</g>
			<path style="clip-path:url(#SVGID_00000145024061389623687630000001918858414557766058_);fill:#F9E0AB;" d="M609.41,805.62
				c-1.34,0.37-2.27,0.68-3.23,0.89c-1.16,0.25-2.31,0.27-3.18-0.75c-0.92-1.07-0.86-2.26-0.28-3.43c0.96-1.92,1.89-3.88,3.02-5.7
				c3.06-4.94,6.22-9.82,9.34-14.72c0.27-0.42,0.54-0.86,0.87-1.23c1.1-1.21,2.51-1.38,3.85-0.41c0.58,0.42,1.1,0.93,1.56,1.47
				c4.85,5.61,9.18,11.58,12.79,18.06c0.34,0.61,0.6,1.33,0.65,2.02c0.12,1.83-1.3,3.14-3.34,3.08c-1.57-0.05-3.13-0.28-4.8-0.44
				c-0.19,0.94,0.45,1.5,0.83,2.11c2.61,4.29,5.24,8.57,7.85,12.86c0.45,0.73,0.9,1.48,1.21,2.28c0.92,2.38-0.25,4.36-2.77,4.69
				c-0.85,0.11-1.72,0.04-2.57,0.03c-0.77-0.01-1.54-0.06-2.59-0.11c0.31,0.62,0.47,0.99,0.68,1.33c1.57,2.57,3.17,5.12,4.73,7.7
				c1.6,2.64,3.16,5.3,4.72,7.95c0.4,0.68,0.86,1.34,1.14,2.07c0.71,1.87-0.02,3.29-1.76,4.27c-2.25,1.28-4.62,1.71-7.18,1.82
				c-4.59,0.2-9.16,0.66-13.74,0.98c-5.91,0.41-11.75-0.12-17.56-1.16c-0.35-0.06-0.69-0.18-1.03-0.29
				c-2.58-0.87-3.36-2.58-2.25-5.01c2-4.37,4.03-8.73,6.04-13.09c0.29-0.64,0.56-1.28,1-2.27c-1.04,0.08-1.78,0.17-2.52,0.19
				c-2.59,0.08-3.93-1.47-3.3-3.98c0.29-1.17,0.8-2.32,1.4-3.36c1.4-2.42,2.92-4.77,4.37-7.16c1.71-2.82,3.41-5.65,5.08-8.49
				C608.78,807.22,608.99,806.57,609.41,805.62z"/>
			<path style="clip-path:url(#SVGID_00000145024061389623687630000001918858414557766058_);fill:#F9E0AB;" d="M653.04,825.74
				c-1.07-0.06-1.87-0.12-2.66-0.16c-0.72-0.03-1.44,0.02-2.15-0.08c-1.76-0.24-2.46-1.55-1.62-3.13c2.02-3.8,3.86-7.69,6.42-11.18
				c0.25-0.33,0.43-0.71,0.75-1.24c-1.03-0.17-1.9-0.3-2.77-0.47c-0.61-0.12-1.23-0.23-1.8-0.46c-1.33-0.54-1.77-1.67-1.05-2.91
				c0.62-1.07,1.36-2.08,2.13-3.06c2.5-3.15,5.03-6.27,7.55-9.4c0.39-0.48,0.73-1.01,1.15-1.47c0.89-0.98,1.79-1,2.71-0.04
				c0.33,0.34,0.59,0.75,0.82,1.17c0.94,1.77,1.8,3.6,2.8,5.34c1.45,2.53,2.98,5.01,4.52,7.48c0.54,0.87,1.21,1.68,0.66,2.75
				c-0.54,1.07-1.58,1.11-2.6,1.16c-0.67,0.03-1.34,0.05-2.01,0.11c-0.3,0.03-0.6,0.15-0.88,0.23c0.02,0.21-0.01,0.33,0.04,0.39
				c2.61,3.15,4.24,6.92,6.42,10.34c0.58,0.92,1.02,1.95,1.39,2.98c0.47,1.32,0.03,2.04-1.36,2.17c-1.33,0.13-2.67,0.12-4.01,0.17
				c-0.46,0.02-0.93,0.05-1.62,0.09c0.19,0.52,0.24,0.89,0.43,1.16c2.48,3.4,5.03,6.75,8.14,9.62c0.82,0.76,1.08,1.42,0.76,2.12
				c-0.36,0.81-1.08,1.04-1.89,1.03c-5.02-0.03-10.05-0.1-15.07-0.09c-3.06,0.01-6.11,0.15-9.17,0.24c-1.1,0.03-2.2,0.16-3.29,0.12
				c-2.27-0.07-3.14-1.58-1.93-3.48c1.1-1.73,2.36-3.37,3.64-4.97c1.47-1.83,3.04-3.57,4.56-5.35
				C652.34,826.64,652.59,826.31,653.04,825.74z"/>
			<path style="clip-path:url(#SVGID_00000145024061389623687630000001918858414557766058_);fill:#5C3A38;" d="M788.55,865.2
				c-5.87,0.98-7.69,5.4-8.66,10.13c-1.28,6.27-2.69,12.61-2.93,18.97c-0.62,15.94-0.8,31.91-0.78,47.86
				c0.01,9.97,1.86,19.77,4.29,29.44c1.55,6.18,3.64,12.06,8.96,16.12c1.44,1.1,1.58,2.6,1.52,4.22
				c-0.41,12.81-0.74,25.63-1.25,38.43c-0.24,5.88-0.76,11.75-1.31,17.61c-0.24,2.59-0.65,5.21-1.38,7.69
				c-1.07,3.63-3.36,6.25-7.39,6.64c-4.12,0.39-6.57-2.01-8.31-5.37c-0.54-1.04-1.05-2.12-1.43-3.23
				c-3.34-9.79-6.21-19.71-7.86-29.94c-1.63-10.16-1.08-20.35-0.45-30.55c0.07-1.17,0.32-2.35,0.28-3.52
				c-0.09-3.1,0.62-5.68,2.86-8.14c2.63-2.87,3.2-6.83,3.52-10.63c0.54-6.32,0.02-12.52-2.17-18.56c-0.64-1.77-0.91-3.87-0.66-5.73
				c2.68-19.48,3.19-39.1,3.83-58.71c0.1-3.11,0.9-5.34,3.33-7.42c5.04-4.3,6.11-12.24,2.72-19.09c-1.21-2.44-2.87-4.68-4.5-6.88
				c-1.08-1.46-1.5-2.94-1.46-4.73c0.43-21.71,0.72-43.43,1.28-65.14c0.13-5.2,1-10.4,1.73-15.57c0.33-2.39,1.52-4.42,3.77-5.69
				c3.12-1.76,5.49-1.46,7.47,1.51c1.29,1.93,2.5,4.1,3.01,6.33c1.29,5.72,2.64,11.5,3.12,17.33c1.27,15.53,1.57,31.09,0.44,46.66
				c-0.52,7.18-0.72,14.37-1.08,21.56C788.94,859.54,788.74,862.26,788.55,865.2z"/>
			<path style="clip-path:url(#SVGID_00000145024061389623687630000001918858414557766058_);fill:#5C3A38;" d="M967.21,932.55
				c9.81,1.29,14.09,6.97,14.29,16.75c1.85-0.99,3.22-1.75,4.61-2.47c1.16-0.6,2.32-1.22,3.52-1.73c3.58-1.52,7.2-2.59,10.54,0.45
				c3.34,3.04,4.07,6.96,3.31,11.22c-0.2,1.1-0.76,2.15-1.21,3.19c-2.59,5.97-15.65,10.27-20.57,8.56
				c-2.09-0.73-3.88-2.31-5.95-3.59c-3.26,2.34-6.65,4.78-10.46,7.52c3.87,8.26,1.55,16.73,0.21,25.26
				c-0.48,3.07-1.75,5.38-4.47,6.51c-3.88,1.62-7.85,3.3-11.94,4.1c-6.64,1.3-13.37,0.67-19.88-1.12c-5.32-1.47-6.22-3.41-4.84-8.68
				c0.83-3.16,1.61-6.33,2.5-9.47c0.88-3.11,1.88-6.19,2.97-9.72c-11.12-1.37-17.06-7.88-17.6-18.42
				c-0.41-7.96,2.82-14.44,11.83-16.45c-0.98-3.93-2.2-7.49-2.65-11.15c-0.3-2.47,0.04-5.25,0.91-7.59
				c1.28-3.45,4.16-5.44,7.96-5.55c3.96-0.12,6.88,1.74,8.74,5.22c3.64,6.8,2.55,14.22-2.86,19.77c-0.55,0.56-1.06,1.17-1.56,1.72
				c5.87,7.85,6.14,8.65,6.41,19.61c2.68-0.78,5.23-1.52,7.86-2.29c0-4.55-0.67-9.03,0.19-13.19c0.84-4.03,3.27-7.74,5.04-11.7
				c-1.06-2.8-2.35-5.9-3.38-9.08c-0.44-1.36-0.47-2.91-0.41-4.36c0.23-6.11,2.72-8.37,10.04-9.01c0.86-1.32,1.74-2.87,2.81-4.27
				c2.73-3.58,6.01-6.48,10.46-7.73c3.5-0.98,6.12,0.28,7.64,3.53c3.86,8.22-1.98,19.76-10.79,21.33
				C968.69,930.07,968.69,930.07,967.21,932.55z"/>
			<path style="clip-path:url(#SVGID_00000145024061389623687630000001918858414557766058_);fill:#5C3A38;" d="M761.46,979.08
				c-1.66-0.64-2.99-1.13-4.3-1.66c-1.82-0.73-3.58-1.64-5.44-2.21c-18.72-5.75-30.86-18.54-38.38-36.1
				c-6.44-15.05-9.39-31-11.06-47.19c-1.17-11.33-1.72-22.7-0.66-34.08c0.23-2.45,0.62-4.96,1.43-7.26
				c1.14-3.23,3.32-4.04,6.58-3.04c2.84,0.87,4.89,2.78,5.78,5.46c1.23,3.7,2.23,7.51,2.87,11.35c1.69,10.19,3.08,20.42,4.68,30.62
				c0.79,5.04,1.66,10.06,2.7,15.05c1.36,6.57,3.82,12.76,7.02,18.66c2.11,3.88,5.01,6.94,8.81,9.26c4.8,2.92,9.43,6.13,14.22,9.07
				c4.94,3.04,7.54,7.42,8.11,13.13c0.49,4.84,0.79,9.67-0.55,14.41C762.86,976.01,762.15,977.38,761.46,979.08z"/>
			<path style="clip-path:url(#SVGID_00000145024061389623687630000001918858414557766058_);fill:#5C3A38;" d="M803.21,969.38
				c0.18-3.22,0.3-5.93,0.5-8.64c0.4-5.34,0.78-10.69,1.31-16.02c0.14-1.36,0.48-2.95,1.31-3.93c5.37-6.34,7.53-13.94,9.02-21.85
				c2.34-12.46,4.65-24.93,7.15-37.35c0.77-3.83,2.07-7.56,3.25-11.29c0.43-1.35,1.11-2.67,1.91-3.85c2.64-3.85,7.13-3.86,9.69,0.06
				c2.09,3.2,3.38,6.77,3.85,10.6c1.19,9.67,0.77,19.32-0.33,28.96c-1.22,10.67-3.32,21.18-6.3,31.49
				c-2.31,8-5.88,15.37-11.24,21.81C818.26,965.47,811.96,969.19,803.21,969.38z"/>
			<path style="clip-path:url(#SVGID_00000145024061389623687630000001918858414557766058_);fill:#5C3A38;" d="M779.97,923.17
				c0.53-16.44,0.37-28.23,2.46-39.87c0.46-2.57,0.95-5.15,1.61-7.67c0.39-1.5,0.95-3.03,1.78-4.33c1.73-2.72,5.27-2.91,7.23-0.38
				c1.02,1.32,1.83,2.88,2.38,4.46c4.28,12.46,6.7,25.28,6.56,38.48c-0.11,9.67-0.4,19.35-0.97,29
				c-0.61,10.43-1.62,20.85-2.48,31.27c-0.28,3.33-1.19,6.44-3.68,8.85c-1.87,1.81-2.9,1.99-4.52-0.11c-1.8-2.34-3.74-4.92-4.43-7.7
				c-2-7.97-4.08-16.02-4.86-24.16C779.99,940.23,780.16,929.34,779.97,923.17z"/>
			<path style="clip-path:url(#SVGID_00000145024061389623687630000001918858414557766058_);fill:#5C3A38;" d="M546.01,944.81
				c-6.03-0.61-8.12-4.12-8.4-9.08c-0.17-2.93-0.38-5.88-0.24-8.81c0.4-8.32,0.96-16.64,1.49-24.95c0.06-0.97,0.05-2.07,0.51-2.86
				c0.42-0.73,1.41-1.52,2.18-1.55c0.77-0.03,2.04,0.7,2.26,1.38c0.51,1.5,0.69,3.18,0.67,4.78c-0.13,9.15-0.42,18.3-0.53,27.45
				c-0.03,2.2,0.4,4.4,0.62,6.6c0.41,0,0.82,0.01,1.23,0.01c0.32-2.96,0.72-5.92,0.95-8.89c0.7-9.12,1.32-18.25,2.03-27.38
				c0.11-1.44,0.32-2.95,0.9-4.25c0.31-0.69,1.52-1.41,2.27-1.36c0.76,0.05,1.9,0.91,2.1,1.63c0.44,1.54,0.55,3.22,0.49,4.83
				c-0.47,12.9-1.06,25.8-1.52,38.7c-0.17,4.57-0.19,9.15-0.13,13.72c0.03,2.18,0.5,4.3,3.27,4.79c1.9-0.95,1.33-2.81,1.42-4.31
				c0.44-8,0.65-16.01,1.17-24c1.09-16.46,2.33-32.92,3.51-49.38c0.36-5.05,0.7-10.11,1.1-15.16c0.08-0.97,0.11-2.07,0.59-2.83
				c0.45-0.71,1.47-1.46,2.24-1.47c0.77-0.01,1.92,0.72,2.25,1.42c0.53,1.13,0.72,2.52,0.7,3.8c-0.16,8.49-0.24,16.99-0.66,25.47
				c-0.67,13.22-1.62,26.42-2.39,39.64c-0.37,6.36-0.64,12.73-0.92,19.1c-0.07,1.55-0.01,3.11-0.01,4.9c4-0.39,4.71-2.97,5.15-5.54
				c0.82-4.83,1.62-9.68,2.07-14.55c0.84-9.11,1.39-18.24,2.12-27.36c0.14-1.78,0.33-3.62,0.95-5.27c0.31-0.83,1.66-1.78,2.5-1.75
				c0.87,0.03,2.06,1.02,2.46,1.9c0.52,1.12,0.52,2.55,0.52,3.84c0.04,14.24-0.78,28.39-3.1,42.48c-1.3,7.88-5.58,12.63-13.36,14.87
				c-0.36,4.77-0.84,9.45-1.03,14.14c-0.25,6.21-0.24,12.42-0.41,18.63c-0.05,1.62-0.05,3.36-0.67,4.79
				c-0.5,1.16-1.78,2.53-2.92,2.75c-1.84,0.36-2.89-1.3-3.29-2.96c-0.3-1.25-0.34-2.59-0.31-3.89c0.19-8.66,0.44-17.31,0.65-25.97
				c0.05-1.94,0.01-3.89,0.01-5.75c-0.35-0.33-0.54-0.65-0.82-0.74c-7.6-2.57-9.38-4.87-9.62-12.72
				C545.94,950.89,546.01,948.12,546.01,944.81z"/>
			<path style="clip-path:url(#SVGID_00000145024061389623687630000001918858414557766058_);fill:#5C3A38;" d="M738.29,824.41
				c0.41-3.97,0.55-6.72,1.01-9.41c0.76-4.48,4.03-7.61,7.99-7.93c4.55-0.37,8.12,1.8,9.59,6.38c0.87,2.7,1.18,5.61,1.49,8.45
				c0.38,3.5,0.62,7.03,0.71,10.56c0.25,10.08,4.25,18.78,9.99,26.73c2.75,3.8,4.19,7.8,3.7,12.42c-0.15,1.38-0.56,2.86-1.28,4.03
				c-1.69,2.75-3.21,3.18-6.3,2c-5.98-2.28-10.98-5.77-14.75-11.14c-5.24-7.48-7.68-15.98-9.47-24.69
				C739.72,835.68,739.05,829.44,738.29,824.41z"/>
			<path style="clip-path:url(#SVGID_00000145024061389623687630000001918858414557766058_);fill:#5C3A38;" d="M425.49,1017.05
				c0.16-2.21,0.35-3.78,0.37-5.35c0.11-8.17,0.13-16.33,0.28-24.5c0.28-14.86,0.64-29.71,0.96-44.57c0.01-0.65,0.01-1.31,0.11-1.95
				c0.25-1.54,0.85-2.9,2.64-3.04c1.82-0.15,2.66,1.03,2.93,2.63c0.28,1.6,0.59,3.22,0.6,4.84c0.02,20.74,0.09,41.49-0.06,62.23
				c-0.1,12.73-0.55,25.46-0.9,38.19c-0.04,1.61-0.16,3.3-0.71,4.77c-0.33,0.87-1.6,1.96-2.41,1.93c-1.08-0.04-2.63-0.84-3.06-1.74
				c-0.73-1.55-1.01-3.45-1-5.19c0.04-5.55,0.24-11.1,0.48-16.64c0.13-2.98-0.18-5.05-3.81-6.16c-4.2-1.29-6.53-5.04-6.63-9.44
				c-0.23-10.45-0.13-20.9-0.15-31.35c0-0.49,0.04-0.99,0.15-1.46c0.42-1.74,1.43-3.3,3.27-2.91c1.14,0.24,2.4,1.59,2.91,2.74
				c0.55,1.26,0.38,2.88,0.38,4.35c0,8.49-0.03,16.99-0.06,25.48C421.78,1012.53,421.76,1015.16,425.49,1017.05z"/>
			<path style="clip-path:url(#SVGID_00000145024061389623687630000001918858414557766058_);fill:#FFC72C;" d="M332.82,918.8
				c0.36-2.1,0.7-3.44,0.8-4.8c0.8-10.57,1.55-21.15,2.33-31.72c0.06-0.81,0.01-1.79,0.44-2.36c0.61-0.81,1.67-1.85,2.45-1.78
				c0.82,0.06,2.02,1.21,2.22,2.07c0.4,1.71,0.38,3.57,0.27,5.35c-0.57,8.79-1.26,17.57-1.85,26.36c-0.13,1.92-0.02,3.86-0.02,6.84
				c1.48-1.16,2.75-1.65,2.91-2.37c0.69-3.16,1.22-6.39,1.48-9.61c0.32-3.95,1.07-5.75,2.84-5.29c2.79,0.73,2.44,3.21,2.25,5.23
				c-0.35,3.72-1.01,7.42-1.54,11.13c-0.47,3.25-2.32,5.29-5.42,6.28c-0.92,0.29-1.79,0.73-2.98,1.22
				c-0.18,2.55-0.37,5.13-0.54,7.71c-0.13,2.02-0.86,3.59-3.17,3.51c-2.13-0.08-2.58-1.72-2.61-3.47c-0.05-2.59-0.01-5.18-0.01-7.84
				c-1.38-0.5-2.58-0.97-3.8-1.38c-2.76-0.93-4.19-2.94-4.77-5.7c-1.26-6.02-0.62-12.03,0.06-18.03c0.24-2.13,1.33-3.76,3.81-3.6
				c2.46,0.17,3.41,1.95,3.36,4.05c-0.11,4.07-0.6,8.13-0.75,12.21C330.5,914.63,329.77,916.74,332.82,918.8z"/>
		</g>
	</g>
	<g>
		<path class="st8" d="M245.85,337.56l-42.16-43.25l-9.4,9.16l-2.69-2.76l21.75-21.21l2.69,2.76l-9.33,9.1l42.16,43.25
			L245.85,337.56z"/>
		<path class="st8" d="M248.88,293.66L268.05,317l-3.26,2.68l-40.78-49.66l3.26-2.68l19.17,23.34l15.46-12.7l-19.17-23.34l3.33-2.74
			l40.78,49.66l-3.33,2.74l-19.17-23.34L248.88,293.66z"/>
		<path class="st8" d="M293.69,254.46l2.19,3.17l-14.43,9.96l15.22,22.06l17.37-11.99l2.19,3.17l-20.85,14.39l-36.49-52.88
			l20.85-14.39l2.19,3.17l-17.37,11.99l14.7,21.3L293.69,254.46z"/>
		<path class="st8" d="M355.42,231.35l3.94,7.57c4.75,9.12,2.9,16.7-5.89,21.28c-8.79,4.58-16.07,1.74-20.81-7.38l-15.43-29.64
			c-4.75-9.12-2.9-16.7,5.89-21.28c8.79-4.58,16.07-1.74,20.81,7.38l2.88,5.54l-8.47,4.41l-3.18-6.11c-2.12-4.07-4.72-4.69-7.57-3.2
			c-2.85,1.48-3.84,3.96-1.72,8.03l16.02,30.78c2.12,4.07,4.67,4.6,7.52,3.12c2.85-1.48,3.88-3.88,1.76-7.95l-4.24-8.14
			L355.42,231.35z"/>
		<path class="st8" d="M355.61,203.85c-3.93-9.5-1.16-17,8-20.78c9.16-3.78,16.41-0.42,20.34,9.08l12.76,30.88
			c3.93,9.5,1.16,17-8,20.78c-9.16,3.78-16.41,0.42-20.34-9.08L355.61,203.85z M377.94,231.47c1.75,4.24,4.28,5.08,7.25,3.86
			c2.97-1.23,4.17-3.61,2.42-7.85l-13.25-32.06c-1.75-4.24-4.28-5.08-7.25-3.86c-2.97,1.23-4.17,3.61-2.42,7.85L377.94,231.47z"/>
		<path class="st8" d="M396.42,187.62c-3.06-9.81,0.36-17.04,9.82-19.99c9.46-2.95,16.38,1.04,19.45,10.86l9.95,31.9
			c3.06,9.81-0.36,17.04-9.82,19.99c-9.46,2.95-16.38-1.04-19.45-10.86L396.42,187.62z M416.2,217.12c1.37,4.38,3.81,5.44,6.88,4.49
			c3.07-0.96,4.48-3.22,3.11-7.6l-10.33-33.12c-1.37-4.38-3.81-5.45-6.88-4.49c-3.07,0.96-4.48,3.22-3.11,7.6L416.2,217.12z"/>
		<path class="st8" d="M457.16,194.83l-1.82,6.4l4.14,19.3l-9.87,2.12l-13.47-62.83l9.87-2.12l5.87,27.38l7.05-30.15l9.87-2.12
			l-7.73,30.95l21.2,31.88l-10.14,2.18L457.16,194.83z"/>
		<path class="st8" d="M503.8,163.76c-0.76-9.33,2.98-16.54,12.68-17.34c9.88-0.81,14.74,5.7,15.5,15.04l2.67,32.75
			c0.76,9.33-2.98,16.54-12.86,17.35c-9.7,0.79-14.56-5.72-15.32-15.05L503.8,163.76z M510.71,196.44
			c0.57,6.95,3.73,11.85,10.77,11.28c7.14-0.58,9.55-5.94,8.99-12.89l-2.72-33.3c-0.57-6.95-3.82-11.85-10.96-11.26
			c-7.04,0.57-9.37,5.92-8.8,12.87L510.71,196.44z"/>
		<path class="st8" d="M560.45,145.27c9.82,0.16,13.68,5.64,13.53,14.72l-0.09,5.6c-0.12,7.53-3.13,11.79-9.48,13.16
			c6.58,1.58,9.17,6.3,9.06,13.27l-0.16,10c-0.04,2.66,0.09,5.6,1.44,7.73l-4.4-0.07c-1.07-1.95-1.31-4.24-1.25-7.73l0.16-10.1
			c0.14-8.53-4.5-11-11.85-11.12l-6.7-0.11l-0.46,28.73l-4.22-0.07l1.04-64.24L560.45,145.27z M557.56,176.89
			c7.53,0.12,11.96-1.92,12.1-10.54l0.1-6.06c0.11-6.88-2.48-11.06-9.46-11.17l-9.09-0.15l-0.45,27.81L557.56,176.89z"/>
		<path class="st8" d="M616.53,164.14l-0.42,4.75l-4.02-0.36l0.45-5.03c0.61-6.86-1.58-12.3-8.62-12.93
			c-7.04-0.63-10.15,4.35-10.76,11.21l-2.95,33.28c-0.61,6.86,1.59,12.21,8.63,12.84c7.04,0.62,10.15-4.26,10.75-11.12l1.23-13.81
			l-8.5-0.75l0.34-3.84l12.53,1.11l-1.54,17.37c-0.82,9.23-5.46,15.83-15.24,14.96c-9.78-0.87-13.19-8.17-12.37-17.41l2.9-32.73
			c0.82-9.23,5.46-15.83,15.24-14.96S617.35,154.91,616.53,164.14z"/>
		<path class="st8" d="M630.93,200.84l-5.7,13.43l-3.79-0.69l25.28-60.82l6.05,1.1l2.63,65.87l-4.16-0.75l-0.63-14.57L630.93,200.84
			z M632.21,197.35l18.43,3.33l-1.9-42.6L632.21,197.35z"/>
		<path class="st8" d="M668.43,223.04l-3.71-1.04l17.26-61.9l5.31,1.48l4,57.44l14.57-52.26l3.71,1.04l-17.26,61.9l-4.51-1.26
			l-3.98-60.58L668.43,223.04z"/>
		<path class="st8" d="M727.6,173.97l-21.05,60.71l-3.99-1.38l21.05-60.71L727.6,173.97z"/>
		<path class="st8" d="M743.13,249.17l-26.68-11.13l1.48-3.56l44.73-42.61l-21.86-9.12l1.48-3.56l25.92,10.81l-1.52,3.64L722,236.18
			l22.62,9.43L743.13,249.17z"/>
		<path class="st8" d="M764.69,243.84l-9.5,11.07l-3.41-1.81l42.55-50.27l5.43,2.88l-17.49,63.56l-3.73-1.98l3.83-14.08
			L764.69,243.84z M766.98,240.9l16.54,8.77l11.12-41.17L766.98,240.9z"/>
		<path class="st8" d="M796.75,278.44l32.57-50.87l-10.98-7.03l2.08-3.25l25.59,16.39l-2.08,3.25l-11.05-7.08l-32.57,50.87
			L796.75,278.44z"/>
		<path class="st8" d="M859.67,243.63l-37.76,51.99l-3.42-2.48l37.76-51.99L859.67,243.63z"/>
		<path class="st8" d="M861.45,264.38c5.95-7.23,13.65-9.81,21.17-3.63c7.66,6.3,6.62,14.35,0.67,21.58l-20.87,25.38
			c-5.95,7.23-13.65,9.81-21.31,3.51c-7.51-6.18-6.47-14.24-0.53-21.47L861.45,264.38z M843.66,292.65
			c-4.43,5.39-5.57,11.11-0.11,15.6c5.53,4.55,10.99,2.38,15.42-3l21.22-25.8c4.43-5.39,5.5-11.16-0.03-15.71
			c-5.46-4.49-10.85-2.27-15.28,3.12L843.66,292.65z"/>
		<path class="st8" d="M862.83,329.39l-2.76-2.7l44.94-45.92l3.94,3.85l-24.17,52.26l37.95-38.77l2.76,2.7l-44.94,45.92l-3.35-3.27
			l25.7-55L862.83,329.39z"/>
	</g>
</g>
<g id="Layer_32" class="st0">
	<g class="st1">
		<circle class="st3" cx="38.29" cy="1002.57" r="445.76"/>
		<g>
			<defs>
				<circle id="SVGID_00000183208424696466191130000011494314783933800588_" cx="37.16" cy="1001.45" r="445.76"/>
			</defs>
			<clipPath id="SVGID_00000056416946171011451410000011237007846768272544_">
				<use xlink:href="#SVGID_00000183208424696466191130000011494314783933800588_"  style="overflow:visible;"/>
			</clipPath>
			<g style="clip-path:url(#SVGID_00000056416946171011451410000011237007846768272544_);">
				<g>
					<path class="st16" d="M180.68,670.62c56.95,0,103.12,240.09,103.12,536.25h82.49c0-318.94-83.1-577.49-185.61-577.49
						c-58.32,0-110.35,77.7-144.38,199.22C2.28,707.08-49.77,629.38-108.08,629.38c-102.51,0-185.63,258.55-185.63,577.49h82.51
						c0-296.15,46.18-536.25,103.12-536.25c56.95,0,103.14,221.63,103.14,494.99h82.48C77.54,892.25,123.72,670.62,180.68,670.62"/>
				</g>
			</g>
			<g style="clip-path:url(#SVGID_00000056416946171011451410000011237007846768272544_);">
				<path class="st6" d="M-115.85,1117.09c-0.53,6.43-0.61,12.93-2.13,19.23c-1.77,7.36-5.2,13.66-11.31,17.75
					c-6.96,4.65-10.15,11.39-10.92,19.92c-0.89,9.88-2.99,19.54-5.29,29.13c-1.27,5.27-4.31,7.05-8.82,4.4
					c-10.35-6.06-19.78-13.38-26.03-24.56c-3.2-5.73-3.82-12.18-4.92-18.51c0.89-0.98,0.79-2.22,0.78-3.43
					c-0.03-4.51-0.06-9.02-0.09-13.52c1.65-3.2,4.73-4.71,7.17-6.95c2.98-2.74,5.77-5.66,8.42-8.76c4.89-5.73,6.1-12.96,7.33-20.22
					c1.52-8.94,2.72-17.94,4.92-26.74c1.46-5.81,3.74-11.19,6.93-16.12c2.39-3.7,5.58-6.5,9.55-7.86c4.84-1.66,9.51-0.59,13.25,3.08
					c5.72,5.63,12.2,8.55,20.02,7.84c1.27-0.11,2.64,0.1,3.85,0.53c1.62,0.58,2.81,1.84,2.87,3.84c0.05,1.77-0.87,3.35-2.3,3.66
					c-5.35,1.15-6.15,5.96-7.85,10.26c-3.16,7.99-4.49,16.38-5.28,24.92C-116.57,1115.63-116.7,1116.32-115.85,1117.09z"/>
				<path class="st6" d="M-184.59,1147.5c0.03,4.51,0.07,9.02,0.09,13.52c0.01,1.21,0.11,2.45-0.78,3.43
					C-186.53,1158.73-187.53,1153.03-184.59,1147.5z"/>
				<path class="st6" d="M-115.85,1117.09c-0.85-0.77-0.72-1.47,0.14-2.1C-114.8,1115.77-114.89,1116.46-115.85,1117.09z"/>
			</g>
			<g style="clip-path:url(#SVGID_00000056416946171011451410000011237007846768272544_);">
				<path class="st7" d="M160.73,1042.55c-1.39,2.04-3.36,2.36-5.14,2.88c-4.89,1.44-9.88,2.29-15,1.78
					c-2.4-0.24-4.47,0.16-6.25,1.98c-6.86,6.98-16.03,9.91-24.65,13.73c-4.63,2.05-9.05,4.09-13.21,7.17
					c-7.73,5.72-15.78,11.14-24.36,15.53c-14.83,7.58-29.58,15.33-44.83,22.09c-14.65,6.49-28.48,14.64-42.24,22.81
					c-8.18,4.86-15.51,10.87-21.68,18.21c-1.64,1.95-2.72,3.96-2.89,6.57c-0.12,1.94-0.54,3.9-1.13,5.76
					c-1.36,4.35-4.21,5.9-8.71,4.95c-0.64-0.13-1.34-0.25-1.85-0.61c-4.22-2.91-7.81-1.17-11.63,1.1c-2.01,1.2-2.4,2.34-1.71,4.31
					c0.43,1.23,0.81,2.49,1.12,3.76c1.14,4.79-0.41,7.89-4.95,9.79c-1.2,0.5-2.46,0.9-3.72,1.21c-4.7,1.14-4.8,1.1-5.43,5.85
					c-0.95,7.13-2.28,14.18-3.6,21.25c-1.87,9.97-5.94,18.99-10.78,27.74c-1.97,3.57-4.26,6.98-6.52,10.38
					c-1.26,1.9-2.71,3.73-4.74,4.9c-3.25,1.88-6.79,0.16-6.53-3.49c0.35-4.94-1.63-8.97-4.16-12.77
					c-7.64-11.49-16.64-21.83-27.26-30.68c-2.89-2.41-6.29-4.06-9.69-5.68c-3.32-1.59-4.27-3.93-2.02-6.62
					c7.33-8.76,8.88-19.52,10.61-30.13c1.56-9.54,5.07-17.84,12.28-24.44c6-5.49,8.49-12.66,9.41-20.48
					c1.26-10.72,3.13-21.32,5.76-31.8c1.57-6.25,3.85-12.13,7.5-17.46c1.86-2.72,3.19-5.67,3.62-9.01c0.67-5.19,3.6-7.79,8.85-8.9
					c18.67-3.95,37.54-4.87,56.53-4.6c17.65,0.25,35.28,0.2,52.89-1.5c12.19-1.17,24.48-1.33,36.69-2.34
					c15.3-1.26,30.62-2.1,45.9-3.75c11.68-1.26,23.49-1.29,35.26-1.19c6.86,0.06,13.72-0.07,20.59-0.11
					C155.68,1040.71,158.2,1041.05,160.73,1042.55z"/>
			</g>
			<g style="clip-path:url(#SVGID_00000056416946171011451410000011237007846768272544_);">
				<path class="st8" d="M-6.37,1166.83c-0.71,2.33,0.05,4.65,0.36,7c0.89,6.72-0.87,9.54-6.22,10.06
					c-8.11,0.78-11.31-2.02-13.16-12.01c-1.17-6.28-2.14-12.63-2.95-18.99c-0.22-1.69-0.57-2.84-1.35-3.56
					c-0.8-0.73-1.78-0.86-2.23-0.93c-4.6-0.61-11.73-0.12-16.31-0.08c-2.79,0.02-3.22-0.13-5.81,0c-4.54,0.23-5.25,0.81-6.05,0.24
					c-2.51-1.78-0.43-11.02,4.51-18.42c5.08-7.62,11.97-11.18,12.95-11.92c29.74-22.29,59.91-43.66,90.66-63.73
					c31.33-20.44,62.72-40.7,93.84-61.63c20.94-14.08,42.45-26.74,64.42-38.23c10.97-5.74,21.79-11.92,32.67-17.89
					c2.39-1.31,4.9-2.34,7.16-3.92c8.75-6.09,17-3.88,24.99,2.15c11.59,8.74,23.78,16,36.19,22.75c2.03,1.11,3.61,1.13,5.44-0.46
					c4.55-3.94,9.2-7.67,13.78-11.55c4.73-4.01,9.61-6.27,14.7-6.69c3.95-0.33,7.15,0.5,12.29,2.42
					c15.62,5.84,23.38,8.89,28.46,13.47c6.28,5.67,6.9,9.59,10.96,15.04c3.2,4.3,4.71,4.88,6.73,7.16
					c11.87,13.4,10.05,30.5,14.33,30.74c2.08,0.11,2.44-3.93,8.14-11.08c4.79-6.01,8.16-10.23,13.03-11.08
					c5.23-0.91,6.77,3.03,20.85,9.12c7.06,3.06,7.53,2.44,12.38,4.89c0,0,9.34,4.72,16.62,12.38c10.28,10.83,3.94,26.56,3.94,77.24
					c0,14.3-0.16,28.69-2.2,42.84c-0.86,5.95-1.87,11.87-3.09,17.72c-1.93,9.25-11.1,13.04-18.36,7.53c1.79-2.85,5.1-3.53,6.94-7.37
					c-8.04-1.76-15.67-3.49-23.31-5.09c-21.57-4.51-43.27-4.17-65.02-2.94c-17.79,1.01-35.6,1.69-53.4,2.61
					c-38.86,2-77.7,4.54-116.5,7.85c-17.28,1.47-34.55,2.99-51.85,4.16c-9.15,0.62-18.3,0.57-27.45,0.33
					c-19.77-0.52-39.55-0.31-59.33-0.32c-20.75-0.01-41.51-0.57-62.19-3.01c-0.81-0.1-1.65-0.01-2.44-0.21
					c-2.7-0.68-3.29,0.99-3.5,3.96c-0.41,5.89-1.1,9.04-2.99,10.23c-0.8,0.51-1.3,0.03-4.51-0.4
					C-2.79,1166.9-4.92,1166.83-6.37,1166.83z"/>
			</g>
			<g style="clip-path:url(#SVGID_00000056416946171011451410000011237007846768272544_);">
				<path class="st16" d="M99.83,1128.25c3.39-3.18,7.59-4.43,10.35-8.23c2.32-3.2,6.32-4.04,10.17-1.94c1.54,0.84,3,1.03,4.68,0.84
					c3.31-0.36,6.22,0.53,8.17,3.37c0.94,1.37,1.9,1.95,3.61,1.83c3.05-0.21,5.85,0.84,8.13,2.82c1.78,1.54,3.45,2.18,5.75,1.23
					c1.17-0.48,2.56-0.43,3.85-0.65c3.05-0.52,5.72,0,8.19,2.15c2.57,2.23,5.75,0.88,6.18-2.47c0.57-4.42,1.96-8.27,6.35-10.31
					c1.2-0.56,1.3-1.78,1.78-2.79c2.18-4.53,5.62-7.15,10.83-6.86c1.67,0.09,3.15-0.2,4.73-0.82c3.07-1.2,5.81-0.31,7.93,2.19
					c1.16,1.37,2.4,2.77,3.12,4.37c1.48,3.3,3.04,6.38,6.55,8.05c0.78,0.37,1.68,1.5,1.69,2.29c0.06,5.24,6.44,7.43,6.04,12.81
					c-0.06,0.82,0.15,1.58,1.04,2.41c2.09-1.69,2.8-4.42,5.03-5.81c2.12-1.33,4.46-1.86,7.19-2.13c-0.15-1.71-0.27-3.13-0.39-4.55
					c-0.04-0.49-0.08-0.98-0.11-1.47c-0.11-1.99-0.3-4.43,1.06-5.65c3.82-3.42,3.03-9.23,6.94-12.48c3.23-2.69,14.19-4.68,18.2-3.46
					c3.05,0.93,4.43,3.82,6.78,5.33c2.16,1.38,5.44,0.62,7.65,2.72c1.84,1.74,3.34,3.73,3.55,6.25c0.24,2.88,1.88,4.75,3.79,6.58
					c1.27,1.22,2.59,1.76,4.41,1.21c4.77-1.45,9.54-2.48,14.1,0.74c0.91,0.64,1.9,0.26,2.77-0.23c0.99-0.56,1.94-1.21,2.92-1.8
					c6.05-3.6,11.97-4.2,17.54,0.82c1.63-0.57,1.65-2.04,1.99-3.23c0.87-3.07,1.97-5.94,5.23-7.25c1.12-0.45,1.18-1.46,1.38-2.4
					c1.68-7.95,11.73-10.68,18.21-6.42c1.23,0.81,2.37,1.61,3.94,1.78c5.54,0.58,8.23,4.3,9.39,9.27c0.57,2.44,1.08,4.47,3.57,5.9
					c2.51,1.44,3.57,4.25,3.79,7.11c0.21,2.68,1.5,2.89,3.59,2.1c3.4-1.28,6.87-2.02,10.55-1.76c1.98,0.14,4.04,0.19,5.67,1.28
					c2.09,1.4,3.52,0.89,5.1-0.73c0.77-0.79,1.84-1.49,2.9-1.77c4-1.04,7.29-2.68,9.07-6.87c0.83-1.94,3.23-2.56,5.41-2.96
					c1.55-0.28,3.02-0.45,4.37-1.79c5.11-5.06,12.26-5.14,17.43-0.22c1.66,1.58,2.95,2.41,5.46,1.86c4.18-0.91,7.66,1.13,10.38,4.21
					c1.4,1.59,2.64,2.2,4.57,1.03c0.81-0.49,1.87-0.88,2.78-0.82c2.68,0.19,4.35-1.03,6.22-2.89c5.1-5.06,13.97-2.94,16.95,4.15
					c1.81,4.29,3.27,8.76,2.67,13.75c-0.64,5.33-0.49,10.75-1,16.13c-0.87,9.3-6.1,14.86-14.49,17.77
					c-5.08,1.76-10.32,3.06-15.51,4.52c-34.59,9.68-68.86,20.4-103.09,31.28c-19.6,6.23-39.31,12.06-59.18,17.44
					c-15.88,4.3-31.71,9.04-46.71,16.07c-7.7,3.61-15.79,6.18-23.98,8.5c-13.2,3.74-25.87,9.06-38.81,13.57
					c-8.68,3.03-17.59,4.91-26.47,7.02c-0.63,0.15-1.41,0.51-1.91,0.29c-4.32-1.89-7.94,0.58-11.71,1.85
					c-21.54,7.24-41.98,17.21-63.04,25.65c-8.64,3.46-17.36,6.71-25.55,11.21c-3.02,1.66-5.95,3.41-8.67,5.52
					c-1.43,1.11-2.81,2.2-3.35,4.08c-0.67,2.33-2.23,3.57-4.73,3.35c-2.23-0.2-3.87-1.83-4.02-4.81c-0.21-4.07-0.18-8.18,0.14-12.24
					c0.97-12.24,0.82-24.49,0.97-36.75c0.09-8.17,0.38-16.33,0.54-24.49c0.1-5.18-0.59-10.11-4.41-14.09c-2.23-2.32-1.54-6.38-4-8.2
					c-2.25-1.66-5.69-1-8.34-2.41c-1.48-0.78-3.22-1.63-3.54-3.2c-1-4.9-4.84-8.99-4-14.37c0.19-1.23-0.16-2.23-1.09-3.07
					c-2.75-2.46-3.21-5.73-2.53-9.02c0.92-4.38,0.03-8.46-1.37-12.49c-1.63-4.7-2.25-9.23,1.15-13.45c0.8-0.99,0.83-2.03,0.5-3.22
					c-1.86-6.71-1.09-12.66,5.16-16.89c1.52-1.03,1.4-2.47,1.24-3.93c-1.22-11.03,4.91-18.22,12.92-24.23
					c6.04-4.52,16.75-4.15,21.31,4.26c2.16,3.99,5.92,5.39,9.36,7.47c1.17,0.71,1.79,0.18,2.29-0.81c2.31-4.56,6.12-6.13,11-5.38
					c1.85,0.28,3.1-0.1,3.93-1.94c0.52-1.16,1.41-2.21,2.33-3.12c3.92-3.92,9.06-3.98,13.03-0.09c1.17,1.15,2.13,2.29,3.96,2.56
					C94.93,1119.11,98.48,1122.27,99.83,1128.25z"/>
			</g>
			<path style="clip-path:url(#SVGID_00000056416946171011451410000011237007846768272544_);fill:#B0513D;" d="M-172.28,1190.14
				c2.64,0.23,4.89,0.61,7.14,0.58c7.08-0.09,14.1,0.57,20.91,2.68c13.11,4.07,24.3,11.25,30.47,25.74
				c3.28,7.71,9.04,10.6,16.11,10.88c7.96,0.32,13.47,4.87,17.5,12.16c1.28,2.32,2.55,4.73,3.39,7.27c1.72,5.24,4.47,9.71,7.42,14.1
				c2.2,3.28,4.29,6.67,6.35,10.07c2.26,3.72,5.16,6.56,8.52,9c2.71,1.96,5.05,4.55,7.69,6.65c2.29,1.82,4.67,3.58,7.19,4.93
				c5.36,2.87,10.84,5.47,16.28,8.15c3.71,1.83,7.4,3.74,11.18,5.39c4.71,2.05,5.5,3.09,5.73,8.56c0.39,9.7-3.9,15.22-12.55,15.78
				c-13.93,0.89-27.84,0.38-41.78-0.46c-11.07-0.67-22.21-0.08-33.31-0.19c-17.88-0.18-35.75-0.51-53.63-0.69
				c-6.77-0.07-13.54,0.11-20.31,0.2c-2.44,0.03-4.87,0.22-7.31,0.23c-22.22,0.02-44.44,0.2-66.65-0.05
				c-17.06-0.19-34.11-1.18-51.17-1.3c-11.09-0.08-22.18,0.76-33.27,1.19c-9.47,0.36-18.95,0.82-28.43,1.05
				c-15.3,0.38-30.6,0.77-45.91,0.84c-8.53,0.04-17.04-0.78-25.44-2.58c-1.19-0.26-2.39-0.55-3.54-0.99
				c-3.07-1.19-4.17-2.77-4.1-6.43c0.26-12.35,0.54-24.69,0.96-37.04c0.28-8.29,2.84-15.29,9-20.53c4.92-4.18,8.35-9.95,11.24-16.06
				c1.97-4.17,3.8-8.42,5.76-12.6c5.12-10.94,11.87-20.38,20.64-27.89c9.06-7.76,18.19-15.37,28.82-20.35
				c5.41-2.53,10.13-6.4,14.57-10.71c2.62-2.54,3.91-5.68,4.21-9.53c0.52-6.52,0.84-13.1,1.89-19.52
				c0.88-5.34,2.45-10.59,4.19-15.68c1.31-3.82,3.99-6.21,7.78-7.29c2.82-0.81,5.43-2.64,8.07-4.18c5.2-3.03,10.51-5.79,16.46-6.01
				c3.2-0.12,6.42,0.37,9.62,0.75c3.08,0.36,6.14,1.17,9.22,1.33c3.84,0.2,4.34-0.4,5.64-4.36c0.8-2.43,1.59-4.86,2.46-7.26
				c0.85-2.35,2.27-4.17,4.43-5.08c5.68-2.4,11.45-3.36,17.5-1.94c4.36,1.02,7.3,3.76,9.08,8.24c0.44,1.11,0.86,2.24,1.22,3.39
				c1.99,6.41,2.63,6.98,8.78,6.98c7.04,0,14.05,0,21.01,1.71c4.26,1.04,7.5,3.27,9.67,7.5c2.32,4.51,5.63,7.67,9.93,9.69
				c6.11,2.88,9.95,7.86,10.19,15.61c0.16,5.1,1.62,9.4,4.83,13.13c2.52,2.94,3.52,6.71,3.57,10.89
				C-172.99,1180.46-172.58,1184.85-172.28,1190.14z"/>
			<g style="clip-path:url(#SVGID_00000056416946171011451410000011237007846768272544_);">
				<path class="st16" d="M-17.18,1178.07c1.72-2.08,1.51-3.99,1.98-5.69c1.23-4.4,3.85-6.22,8.31-5.76c1.95,0.2,3.9,0.37,5.84,0.6
					c3.73,0.45,5.05,1.9,5.25,5.74c0.04,0.81,0.13,1.66-0.02,2.45c-0.55,2.94,0.08,5.34,2.34,7.52c2.71,2.61,3.2,6.03,2.05,9.54
					c-0.95,2.93-1.41,5.36,1.23,7.96c2.14,2.11,2.12,5.34,1.9,8.36c-0.24,3.29,0.89,4.75,4.05,5.51c0.79,0.19,1.61,0.25,2.43,0.33
					c5,0.49,8.68,2.59,10.02,7.83c0.27,1.07,0.93,2.13,1.66,2.97c3.67,4.23,4.67,9.27,4.54,14.62c-0.55,22.39-0.16,44.76,1.07,67.12
					c0.07,1.3,0.04,2.61,0.11,3.92c0.16,2.86-1.54,4.38-3.76,5.77c-12.3,7.73-24.6,15.48-36.8,23.37
					c-8.91,5.76-17.96,11.38-24.86,19.7c-0.75,0.91-1.8,1.4-2.91,1.73c-9.01,2.68-17.85,4.13-27.34,1.1
					c-26.13-8.33-51.98-17.44-77.91-26.33c-20.68-7.09-41.43-14.06-63.06-17.82c-5.14-0.89-10.34-1.48-15.32-3.19
					c-2.87-0.99-5.45,0.53-8.11,1.12c-1.74,0.39-3.39,1.22-5.13,1.57c-1.89,0.38-3.68-0.05-4.45-2.08c-0.77-2.03,0.2-3.48,1.94-4.49
					c2.55-1.48,5.34-2.38,8.12-3.35c20.5-7.09,41.34-13.41,60.56-23.71c14.3-7.67,27.88-16.43,38.54-28.98
					c7.16-8.42,12.87-17.71,16.12-28.33c3.88-12.66,7.42-25.39,8.15-38.74c0.28-5.15,2.02-6.73,7.06-7.92
					c0.48-0.11,0.95-0.26,1.42-0.37c5.52-1.27,5.53-1.27,5.41-7.1c-0.06-3.1-0.21-6.21-0.22-9.31c-0.02-4.33,1.49-6.4,5.77-7.16
					c5.94-1.04,11.73-1.11,15.69,5.72c0-3.3-0.07-5.7,0.01-8.1c0.16-4.86,1.88-6.99,6.54-7.62c8.44-1.15,16.89-1.35,25.41-0.45
					c5.46,0.58,8.58,3.37,10.23,8.38c2.04,6.21,4.28,12.34,5.01,18.9C-18.16,1174.85-17.64,1176.24-17.18,1178.07z"/>
			</g>
			<g style="clip-path:url(#SVGID_00000056416946171011451410000011237007846768272544_);">
				<path class="st10" d="M175.93,1199.38c17.17,0.38,34.64,0.61,52.09,1.23c7.15,0.25,14.27,1.33,21.4,2.1
					c4.21,0.45,8.39,1.18,12.6,1.5c13.03,1.01,26.08,1.52,39.15,1.04c8.64-0.32,17.31,0.47,25.93-0.77
					c3.33-0.48,6.47,0.52,9.53,1.73c3.08,1.22,3.66,2.96,1.49,5.55c-2.22,2.64-5.1,4.59-8.18,6.11c-9.8,4.84-19.71,9.41-29.71,13.84
					c-10.92,4.84-22.42,8.04-33.39,12.68c-3.76,1.59-7.42,3.39-11.09,5.18c-17.46,8.56-35.36,16.04-53.66,22.6
					c-15.97,5.72-31.87,11.58-47.36,18.61c-16.8,7.63-33.64,15.19-50,23.7c-17.43,9.08-35.48,16.48-54.01,22.94
					c-15.1,5.26-29.76,11.54-43.69,19.61c-9.55,5.53-19.42,10.97-30.37,13.33c-6.81,1.47-13.86,1.96-20.83,2.56
					c-5.2,0.45-10.36,1.15-15.53,1.73c-7.16,0.79-14.34,0.91-21.28-1.69c-5.04-1.89-10.11-3.72-15.18-5.51
					c-5.59-1.97-10.62-4.94-15.58-8.14c-11.15-7.2-23.1-12.82-35.45-17.66c-5.19-2.04-10.09-4.69-14-8.78
					c-2.31-2.41-2.04-4.29,0.72-5.9c13.7-7.99,26.64-17.1,39.62-26.17c21.57-15.07,44.32-28.25,66.88-41.74
					c14.71-8.79,29.34-17.75,44.56-25.67c24.01-12.49,48.82-22.57,75.9-26.24c11.77-1.6,23.45-3.9,35.23-5.43
					c6.61-0.86,13.34-0.97,20.02-1.14c9.15-0.24,18.34,0.25,27.44-0.46C158.02,1199.42,166.82,1199.67,175.93,1199.38z"/>
			</g>
			<g style="clip-path:url(#SVGID_00000056416946171011451410000011237007846768272544_);">
				<path class="st11" d="M480.43,1187.22c-0.1,7.68,0.99,13.58,0.72,19.39c-0.7,15.17-0.06,30.37-1.36,45.53
					c-0.47,5.5-0.46,11.09,0.25,16.64c0.31,2.42,0.43,4.92,0.16,7.34c-0.95,8.64-0.28,17.31-0.73,25.95
					c-0.91,17.46-0.84,34.94-1.14,52.41c-0.1,5.75-2.19,6.54-7.86,4.53c-7.13-2.53-14.5-4.18-22.28-3.32
					c-23.09,2.55-46.02,6.19-68.97,9.7c-10.89,1.67-21.64,4.28-32.55,5.97c-13.87,2.14-27.76,3.8-41.82,3.71
					c-4.96-0.03-9.92-0.24-14.87-0.1c-13.68,0.4-27.31,1.44-40.95,2.57c-9.48,0.78-19.05,2.03-28.64,0.69
					c-2.76-0.38-5.63-0.32-8.41-0.07c-18.15,1.58-36.33,0.88-54.47,0.39c-9.4-0.25-18.81-0.34-28.21-0.75
					c-11.2-0.48-22.34-1.71-33.47-3.1c-6.7-0.84-13.39-1.78-20.09-2.54c-9.83-1.11-19.55-2.88-29.31-4.44
					c-4.88-0.78-9.74-1.58-14.73-1.5c-13.7,0.23-27.34-1.8-41.07-1.03c-5.59,0.31-11.17,1.18-16.8,0.84
					c-1.48-0.09-2.94,0.02-4.39-0.49c-3.1-1.07-4.49-4.44-1.89-7.38c6.98-7.88,15.72-13.42,24.5-18.94
					c9.06-5.69,18.19-11.26,27.33-16.82c23.26-14.16,47.63-26.09,73.17-35.68c15.58-5.85,31.21-11.58,47.12-16.51
					c14.79-4.58,29.78-8.49,44.71-12.59c16.52-4.54,32.85-9.77,49.11-15.17c20.17-6.7,40.23-13.72,60.22-20.93
					c6.18-2.23,11.98-5.47,17.92-8.31c7.3-3.5,15-6,22.68-8.45c18.68-5.94,37.48-11.46,55.78-18.61
					c13.48-5.26,27.7-8.46,41.68-12.32c14.45-3.98,29.07-7.33,43.42-11.67c3.58-1.08,4.14-0.81,4.19,2.88
					C479.49,1173.07,481.14,1181,480.43,1187.22z"/>
			</g>
			<g style="clip-path:url(#SVGID_00000056416946171011451410000011237007846768272544_);">
				<path class="st11" d="M-22.05,1369.66c-0.25,1.3-0.78,1.37-1.24,1.38c-12.43,0.27-24.86,0.44-36.79-3.97
					c-2.97-1.1-5.84-0.97-9.05-0.53c-25.24,3.49-49.88,10-74.91,14.54c-12.99,2.35-26.16,3.69-39.24,5.59
					c-13.88,2.02-27.86,3.24-41.75,5.28c-12.56,1.84-25.06,4.68-37.88,4.46c-7.5-0.13-14.95-1.15-22.51-0.54
					c-5.12,0.41-8.04-2.9-8.31-8.22c-0.23-4.57-0.29-9.13-0.67-13.7c-0.44-5.39-1.1-10.7-2.28-15.98c-0.96-4.3-1.08-8.66-0.41-13.13
					c0.62-4.17,0.36-8.48,0.45-12.73c0.04-1.64-0.04-3.29,0.72-4.8c1.04-2.07,2.64-3.74,5.02-2.81c2.22,0.87,3.71-0.04,5.47-0.92
					c15.17-7.58,31.45-10.97,48.2-11.72c12.43-0.55,24.72,1.34,36.8,4.53c12.46,3.29,24.99,6.28,37.61,8.97
					c9.72,2.07,18.98,6.01,28.29,9.55c10.07,3.84,19.96,8.16,30.06,11.91c13.16,4.88,26.72,8.48,40.24,12.26
					c12.58,3.52,25.6,5.1,38.03,9.18C-24.82,1368.69-23.47,1369.18-22.05,1369.66z"/>
			</g>
			<g style="clip-path:url(#SVGID_00000056416946171011451410000011237007846768272544_);">
				<path class="st16" d="M489.38,1372.75c0.61,10.15-0.76,21.21-1.17,32.3c-0.33,8.93-1.71,17.83-1.77,26.81
					c-0.03,3.86-1.65,4.9-5.77,4.98c-13.7,0.25-27.36-0.81-41.03-1.29c-15.44-0.55-30.53,1.3-45.65,3.68
					c-12.16,1.92-24.27,4.11-36.51,5.48c-13.75,1.54-27.55,2.26-41.35,3.14c-13.87,0.89-27.71,0.63-41.57,0.78
					c-6.18,0.06-12.34,0.87-18.49,0.72c-34.25-0.87-68.51-0.42-102.76-1.07c-9.5-0.18-19.05-0.08-28.51-0.92
					c-9.18-0.81-18.39,10.3-27.51,9.5c-10.01-0.87-20.06-0.16-30.02-1.02c-11.69-1-23.38-0.3-35.04-0.92
					c-14.69-0.78-29.4-0.31-44.07-1.07c-7.84-0.4-15.69-0.33-23.5-0.87c-14.65-1.01-29.32-11.83-43.98-12.57
					c-11.36-0.58-22.72-0.14-34.04-0.88c-25.05-1.63-50.11-0.51-75.17-0.66c-4-0.02-7.98,0.07-11.99,0.56
					c-3.76,0.46-7.67,0.56-11.48-0.27c-5.37-1.17-10.67,0.17-15.91,0.83c-5.17,0.65-10.32,0.85-15.48,0.79
					c-9.36-0.1-18.69,0.28-28.02,0.86c-3.56,0.22-6.94-0.71-10.37-1.36c-8.39-1.58-11.55-7.63-13.07-14.92
					c-2.12-10.2-0.93-20.53-0.87-30.79c0.03-4.67,3.34-6.82,8.14-6.07c2.83,0.44,5.67,0.37,8.5,0.08
					c14.76-1.52,29.51-3.64,44.37-2.62c5.51,0.38,10.93,0.23,16.36-0.17c9.62-0.71,19.21-1.86,28.84-2.6
					c8.14-0.63,16.14-2.2,24.35-2.48c11.69-0.4,22.93-3.84,34.38-5.86c19.5-3.45,38.69-8.44,58.28-11.31
					c12.01-1.76,24.15-2.62,36.3-3.38c9.85-0.62,19.7-1.21,29.5-0.56c12.79,0.85,25.61,0.91,38.4,2.43
					c13.89,1.65,27.71,3.55,41.49,5.91c4.38,0.75,8.9,1.14,13.42,1.34c7.48,0.33,14.93,1.32,22.41,1.77
					c8.66,0.52,17.34,0.69,26.01,1.12c38.58,1.91,77.19,0.8,115.79,0.81c14.97,0,29.96-1.05,44.91-2.51
					c8.11-0.79,16.26-1.32,24.37-2.25c7.6-0.87,15.2-1.81,22.8-2.67c3.97-0.45,7.97-0.69,11.94-1.06
					c19.43-1.81,38.64-4.73,57.57-9.47c10.32-2.59,20.78-4.28,31.55-4.74c9.01-0.38,18.01-0.58,27.01-0.8
					c4.39-0.11,8.61,0.95,12.92,1.33c3.88,0.34,5.42,2.42,5.46,6.28C489.42,1361.96,489.38,1366.87,489.38,1372.75z"/>
			</g>
			<path style="clip-path:url(#SVGID_00000056416946171011451410000011237007846768272544_);fill:#F9E0AB;" d="M88.59,1165.49
				c-1.34,0.37-2.27,0.68-3.23,0.89c-1.16,0.25-2.31,0.27-3.18-0.75c-0.92-1.07-0.86-2.26-0.28-3.43c0.96-1.92,1.89-3.88,3.02-5.7
				c3.06-4.94,6.22-9.82,9.34-14.72c0.27-0.42,0.54-0.86,0.87-1.23c1.1-1.21,2.51-1.38,3.85-0.41c0.58,0.42,1.1,0.93,1.56,1.47
				c4.85,5.61,9.18,11.58,12.79,18.06c0.34,0.61,0.6,1.33,0.65,2.02c0.12,1.83-1.3,3.14-3.34,3.08c-1.57-0.05-3.13-0.28-4.8-0.44
				c-0.19,0.94,0.45,1.5,0.83,2.11c2.61,4.29,5.24,8.57,7.85,12.86c0.45,0.73,0.9,1.48,1.21,2.28c0.92,2.38-0.25,4.36-2.77,4.69
				c-0.85,0.11-1.72,0.04-2.57,0.03c-0.77-0.01-1.54-0.06-2.59-0.11c0.31,0.62,0.47,0.99,0.68,1.33c1.57,2.57,3.17,5.12,4.73,7.7
				c1.6,2.64,3.16,5.3,4.72,7.95c0.4,0.68,0.86,1.34,1.14,2.07c0.71,1.87-0.02,3.29-1.76,4.27c-2.25,1.28-4.62,1.71-7.18,1.82
				c-4.59,0.2-9.16,0.66-13.74,0.98c-5.91,0.41-11.75-0.12-17.56-1.16c-0.35-0.06-0.69-0.18-1.03-0.29
				c-2.58-0.87-3.36-2.58-2.25-5.01c2-4.37,4.03-8.73,6.04-13.09c0.29-0.64,0.56-1.28,1-2.27c-1.04,0.08-1.78,0.17-2.52,0.19
				c-2.59,0.08-3.93-1.47-3.3-3.98c0.29-1.17,0.8-2.32,1.4-3.36c1.4-2.42,2.92-4.77,4.37-7.16c1.71-2.82,3.41-5.65,5.08-8.49
				C87.96,1167.09,88.17,1166.44,88.59,1165.49z"/>
			<path style="clip-path:url(#SVGID_00000056416946171011451410000011237007846768272544_);fill:#F9E0AB;" d="M132.23,1185.61
				c-1.07-0.06-1.87-0.12-2.66-0.16c-0.72-0.03-1.44,0.02-2.15-0.08c-1.76-0.24-2.46-1.55-1.62-3.13c2.02-3.8,3.87-7.69,6.42-11.18
				c0.25-0.33,0.43-0.71,0.75-1.24c-1.03-0.17-1.9-0.3-2.77-0.47c-0.61-0.12-1.23-0.23-1.8-0.46c-1.33-0.54-1.77-1.67-1.05-2.91
				c0.62-1.07,1.36-2.08,2.13-3.06c2.5-3.15,5.03-6.27,7.55-9.4c0.39-0.48,0.73-1.01,1.15-1.47c0.89-0.98,1.79-1,2.71-0.04
				c0.33,0.34,0.59,0.75,0.82,1.17c0.94,1.77,1.8,3.6,2.8,5.34c1.45,2.53,2.98,5.01,4.52,7.48c0.54,0.87,1.21,1.68,0.66,2.75
				c-0.54,1.07-1.58,1.11-2.6,1.16c-0.67,0.03-1.34,0.05-2.01,0.11c-0.3,0.03-0.6,0.15-0.88,0.23c0.02,0.21-0.01,0.33,0.04,0.39
				c2.61,3.15,4.24,6.92,6.42,10.34c0.58,0.92,1.02,1.95,1.39,2.98c0.47,1.32,0.03,2.04-1.36,2.17c-1.33,0.13-2.67,0.12-4.01,0.17
				c-0.46,0.02-0.93,0.05-1.62,0.09c0.19,0.52,0.24,0.89,0.43,1.16c2.48,3.4,5.03,6.75,8.14,9.62c0.82,0.76,1.08,1.42,0.76,2.12
				c-0.36,0.81-1.08,1.04-1.89,1.03c-5.02-0.03-10.05-0.1-15.07-0.09c-3.06,0.01-6.11,0.15-9.17,0.24c-1.1,0.03-2.2,0.16-3.29,0.12
				c-2.27-0.07-3.14-1.58-1.93-3.48c1.1-1.73,2.36-3.37,3.64-4.97c1.47-1.83,3.04-3.57,4.56-5.35
				C131.52,1186.51,131.77,1186.18,132.23,1185.61z"/>
			<path style="clip-path:url(#SVGID_00000056416946171011451410000011237007846768272544_);fill:#5C3A38;" d="M267.73,1225.07
				c-5.87,0.98-7.69,5.4-8.66,10.13c-1.28,6.27-2.69,12.61-2.93,18.97c-0.62,15.94-0.8,31.91-0.78,47.86
				c0.01,9.97,1.86,19.77,4.29,29.44c1.55,6.18,3.64,12.06,8.96,16.12c1.44,1.1,1.58,2.6,1.52,4.22
				c-0.41,12.81-0.74,25.63-1.25,38.43c-0.24,5.88-0.76,11.75-1.31,17.61c-0.24,2.59-0.65,5.21-1.38,7.69
				c-1.07,3.63-3.36,6.25-7.39,6.64c-4.12,0.39-6.57-2.01-8.31-5.37c-0.54-1.04-1.05-2.12-1.43-3.23
				c-3.34-9.79-6.21-19.71-7.86-29.94c-1.63-10.16-1.08-20.35-0.45-30.55c0.07-1.18,0.32-2.35,0.28-3.52
				c-0.09-3.1,0.62-5.68,2.86-8.14c2.63-2.87,3.2-6.83,3.52-10.63c0.54-6.32,0.02-12.52-2.17-18.56c-0.64-1.77-0.91-3.87-0.66-5.73
				c2.68-19.48,3.19-39.1,3.83-58.71c0.1-3.11,0.9-5.34,3.33-7.42c5.04-4.3,6.11-12.24,2.72-19.09c-1.21-2.44-2.87-4.68-4.5-6.88
				c-1.08-1.46-1.5-2.94-1.46-4.73c0.43-21.71,0.72-43.43,1.28-65.14c0.13-5.2,1-10.4,1.73-15.57c0.33-2.39,1.52-4.42,3.77-5.69
				c3.12-1.76,5.49-1.46,7.47,1.51c1.29,1.93,2.5,4.1,3.01,6.33c1.29,5.72,2.64,11.5,3.12,17.33c1.27,15.53,1.57,31.09,0.44,46.66
				c-0.52,7.18-0.72,14.37-1.08,21.56C268.12,1219.4,267.92,1222.12,267.73,1225.07z"/>
			<path style="clip-path:url(#SVGID_00000056416946171011451410000011237007846768272544_);fill:#5C3A38;" d="M446.39,1292.42
				c9.81,1.29,14.09,6.97,14.29,16.75c1.85-0.99,3.22-1.75,4.61-2.47c1.16-0.6,2.32-1.22,3.52-1.73c3.58-1.52,7.2-2.59,10.54,0.45
				c3.34,3.04,4.07,6.96,3.31,11.22c-0.2,1.1-0.76,2.15-1.21,3.19c-2.59,5.97-15.65,10.27-20.57,8.56
				c-2.09-0.73-3.88-2.31-5.95-3.59c-3.26,2.34-6.65,4.78-10.46,7.52c3.87,8.26,1.55,16.73,0.21,25.26
				c-0.48,3.07-1.75,5.38-4.47,6.51c-3.88,1.62-7.85,3.3-11.94,4.1c-6.64,1.3-13.37,0.67-19.88-1.12c-5.32-1.47-6.22-3.41-4.84-8.68
				c0.83-3.16,1.61-6.33,2.5-9.47c0.88-3.11,1.88-6.19,2.97-9.72c-11.12-1.37-17.06-7.88-17.6-18.42
				c-0.41-7.96,2.82-14.44,11.83-16.45c-0.98-3.93-2.2-7.49-2.65-11.15c-0.3-2.47,0.04-5.25,0.91-7.59
				c1.28-3.45,4.16-5.44,7.96-5.55c3.96-0.12,6.88,1.74,8.74,5.22c3.64,6.8,2.55,14.22-2.86,19.77c-0.55,0.56-1.06,1.17-1.56,1.72
				c5.87,7.85,6.14,8.65,6.41,19.61c2.68-0.78,5.23-1.52,7.86-2.29c0-4.55-0.67-9.03,0.19-13.19c0.84-4.03,3.27-7.74,5.04-11.7
				c-1.06-2.8-2.35-5.9-3.38-9.08c-0.44-1.36-0.47-2.91-0.41-4.36c0.23-6.11,2.72-8.37,10.04-9.01c0.86-1.32,1.74-2.87,2.81-4.27
				c2.73-3.58,6.01-6.48,10.46-7.73c3.5-0.98,6.12,0.28,7.64,3.53c3.86,8.22-1.98,19.76-10.79,21.32
				C447.87,1289.93,447.87,1289.93,446.39,1292.42z"/>
			<path style="clip-path:url(#SVGID_00000056416946171011451410000011237007846768272544_);fill:#5C3A38;" d="M240.64,1338.94
				c-1.66-0.64-2.99-1.13-4.3-1.66c-1.82-0.73-3.58-1.64-5.44-2.21c-18.72-5.75-30.86-18.54-38.38-36.1
				c-6.44-15.05-9.39-31-11.06-47.19c-1.17-11.33-1.72-22.7-0.66-34.08c0.23-2.45,0.62-4.96,1.43-7.26
				c1.14-3.23,3.32-4.04,6.58-3.04c2.84,0.87,4.89,2.78,5.78,5.46c1.23,3.7,2.23,7.51,2.87,11.35c1.69,10.19,3.08,20.42,4.68,30.62
				c0.79,5.04,1.66,10.06,2.7,15.05c1.36,6.57,3.82,12.76,7.02,18.66c2.11,3.88,5.01,6.94,8.81,9.26c4.8,2.92,9.43,6.13,14.22,9.07
				c4.94,3.04,7.54,7.42,8.12,13.13c0.49,4.84,0.79,9.67-0.55,14.41C242.04,1335.87,241.33,1337.25,240.64,1338.94z"/>
			<path style="clip-path:url(#SVGID_00000056416946171011451410000011237007846768272544_);fill:#5C3A38;" d="M282.39,1329.24
				c0.18-3.22,0.3-5.93,0.5-8.64c0.4-5.34,0.78-10.69,1.31-16.02c0.14-1.36,0.48-2.95,1.31-3.93c5.37-6.34,7.53-13.94,9.02-21.85
				c2.34-12.46,4.65-24.93,7.15-37.35c0.77-3.83,2.07-7.56,3.25-11.29c0.43-1.35,1.11-2.67,1.91-3.85c2.64-3.85,7.13-3.86,9.69,0.06
				c2.09,3.2,3.38,6.77,3.85,10.6c1.19,9.67,0.77,19.32-0.33,28.96c-1.22,10.67-3.32,21.18-6.3,31.49
				c-2.31,8-5.88,15.37-11.24,21.81C297.44,1325.34,291.14,1329.06,282.39,1329.24z"/>
			<path style="clip-path:url(#SVGID_00000056416946171011451410000011237007846768272544_);fill:#5C3A38;" d="M259.15,1283.03
				c0.53-16.44,0.37-28.23,2.46-39.87c0.46-2.57,0.95-5.15,1.61-7.67c0.39-1.5,0.95-3.03,1.78-4.33c1.73-2.72,5.27-2.91,7.23-0.38
				c1.02,1.32,1.83,2.88,2.38,4.46c4.28,12.46,6.7,25.28,6.56,38.48c-0.11,9.67-0.4,19.35-0.97,29
				c-0.61,10.43-1.62,20.85-2.48,31.27c-0.28,3.33-1.19,6.44-3.68,8.85c-1.87,1.81-2.9,1.99-4.52-0.11c-1.8-2.34-3.74-4.92-4.43-7.7
				c-2-7.97-4.08-16.02-4.86-24.16C259.18,1300.1,259.35,1289.21,259.15,1283.03z"/>
			<path style="clip-path:url(#SVGID_00000056416946171011451410000011237007846768272544_);fill:#5C3A38;" d="M25.19,1304.68
				c-6.03-0.61-8.12-4.12-8.4-9.08c-0.17-2.93-0.38-5.88-0.24-8.81c0.4-8.32,0.96-16.64,1.49-24.95c0.06-0.97,0.05-2.07,0.51-2.86
				c0.42-0.73,1.41-1.52,2.18-1.55c0.77-0.03,2.04,0.7,2.26,1.38c0.51,1.5,0.69,3.18,0.67,4.78c-0.13,9.15-0.42,18.3-0.53,27.45
				c-0.03,2.2,0.4,4.4,0.62,6.6c0.41,0,0.82,0.01,1.23,0.01c0.32-2.96,0.72-5.92,0.95-8.89c0.7-9.12,1.32-18.25,2.03-27.38
				c0.11-1.44,0.32-2.95,0.9-4.25c0.31-0.69,1.52-1.41,2.27-1.36c0.76,0.05,1.9,0.91,2.1,1.63c0.44,1.54,0.55,3.22,0.49,4.83
				c-0.47,12.9-1.06,25.8-1.52,38.7c-0.17,4.57-0.19,9.15-0.13,13.72c0.03,2.18,0.5,4.3,3.27,4.79c1.9-0.95,1.33-2.81,1.42-4.31
				c0.44-8,0.65-16.01,1.17-24c1.09-16.46,2.33-32.92,3.51-49.38c0.36-5.05,0.7-10.11,1.1-15.16c0.08-0.97,0.11-2.07,0.59-2.83
				c0.45-0.71,1.47-1.46,2.24-1.47c0.77-0.01,1.92,0.72,2.25,1.42c0.53,1.13,0.72,2.52,0.7,3.8c-0.16,8.49-0.24,16.99-0.66,25.47
				c-0.67,13.22-1.62,26.42-2.39,39.64c-0.37,6.36-0.64,12.73-0.92,19.1c-0.07,1.55-0.01,3.11-0.01,4.9c4-0.39,4.71-2.97,5.15-5.54
				c0.82-4.83,1.62-9.68,2.07-14.55c0.84-9.11,1.39-18.24,2.12-27.36c0.14-1.78,0.33-3.62,0.95-5.27c0.31-0.83,1.66-1.78,2.5-1.75
				c0.87,0.03,2.06,1.02,2.46,1.9c0.52,1.12,0.52,2.55,0.52,3.84c0.04,14.24-0.78,28.39-3.1,42.48c-1.3,7.88-5.58,12.63-13.36,14.87
				c-0.36,4.77-0.84,9.45-1.03,14.14c-0.25,6.21-0.24,12.42-0.41,18.63c-0.05,1.62-0.05,3.36-0.67,4.79
				c-0.5,1.16-1.78,2.53-2.92,2.75c-1.84,0.36-2.89-1.3-3.29-2.96c-0.3-1.25-0.34-2.59-0.31-3.89c0.19-8.66,0.44-17.31,0.65-25.97
				c0.05-1.94,0.01-3.89,0.01-5.75c-0.35-0.33-0.54-0.65-0.82-0.74c-7.6-2.57-9.38-4.87-9.62-12.72
				C25.12,1310.75,25.19,1307.99,25.19,1304.68z"/>
			<path style="clip-path:url(#SVGID_00000056416946171011451410000011237007846768272544_);fill:#5C3A38;" d="M217.47,1184.27
				c0.41-3.97,0.55-6.72,1.01-9.41c0.76-4.48,4.03-7.61,7.99-7.93c4.55-0.37,8.12,1.8,9.59,6.38c0.87,2.7,1.18,5.61,1.49,8.45
				c0.38,3.5,0.62,7.03,0.71,10.56c0.25,10.08,4.25,18.78,9.99,26.73c2.75,3.8,4.19,7.8,3.7,12.42c-0.15,1.38-0.56,2.86-1.28,4.03
				c-1.69,2.75-3.21,3.18-6.3,2c-5.98-2.28-10.98-5.77-14.75-11.14c-5.24-7.48-7.68-15.98-9.47-24.69
				C218.91,1195.54,218.23,1189.3,217.47,1184.27z"/>
			<path style="clip-path:url(#SVGID_00000056416946171011451410000011237007846768272544_);fill:#5C3A38;" d="M-95.32,1376.91
				c0.16-2.21,0.35-3.78,0.37-5.35c0.11-8.17,0.13-16.33,0.28-24.5c0.28-14.86,0.64-29.71,0.96-44.57c0.01-0.65,0.01-1.31,0.11-1.95
				c0.25-1.54,0.85-2.9,2.64-3.04c1.82-0.15,2.66,1.03,2.93,2.63c0.28,1.6,0.59,3.22,0.6,4.84c0.02,20.74,0.09,41.49-0.06,62.23
				c-0.1,12.73-0.55,25.46-0.9,38.19c-0.04,1.61-0.16,3.3-0.71,4.77c-0.33,0.87-1.6,1.96-2.41,1.93c-1.08-0.04-2.63-0.84-3.06-1.74
				c-0.73-1.55-1.01-3.45-1-5.19c0.03-5.55,0.24-11.1,0.48-16.64c0.13-2.98-0.18-5.05-3.81-6.16c-4.2-1.29-6.53-5.04-6.63-9.44
				c-0.23-10.45-0.13-20.9-0.15-31.35c0-0.49,0.04-0.99,0.15-1.46c0.42-1.74,1.43-3.3,3.27-2.91c1.14,0.24,2.4,1.59,2.91,2.74
				c0.55,1.26,0.38,2.88,0.38,4.35c0,8.49-0.03,16.99-0.06,25.48C-99.04,1372.4-99.06,1375.03-95.32,1376.91z"/>
			<path style="clip-path:url(#SVGID_00000056416946171011451410000011237007846768272544_);fill:#FFB71B;" d="M-188,1278.67
				c0.36-2.1,0.7-3.44,0.8-4.8c0.8-10.57,1.55-21.15,2.33-31.72c0.06-0.81,0.01-1.79,0.44-2.36c0.61-0.81,1.67-1.85,2.45-1.78
				c0.82,0.06,2.02,1.21,2.22,2.07c0.4,1.71,0.38,3.57,0.27,5.35c-0.57,8.79-1.26,17.57-1.85,26.36c-0.13,1.92-0.02,3.86-0.02,6.84
				c1.48-1.16,2.75-1.65,2.91-2.37c0.69-3.16,1.22-6.39,1.48-9.61c0.32-3.95,1.07-5.75,2.84-5.29c2.79,0.73,2.44,3.21,2.25,5.23
				c-0.35,3.72-1.01,7.42-1.54,11.13c-0.47,3.25-2.32,5.29-5.42,6.28c-0.92,0.29-1.79,0.73-2.98,1.22
				c-0.18,2.55-0.37,5.13-0.54,7.71c-0.13,2.02-0.86,3.59-3.17,3.51c-2.13-0.08-2.58-1.72-2.61-3.47c-0.05-2.59-0.01-5.18-0.01-7.84
				c-1.38-0.5-2.58-0.97-3.8-1.38c-2.76-0.93-4.19-2.94-4.77-5.7c-1.26-6.01-0.62-12.03,0.06-18.03c0.24-2.13,1.33-3.76,3.81-3.6
				c2.46,0.17,3.41,1.95,3.36,4.05c-0.11,4.07-0.6,8.13-0.75,12.21C-190.32,1274.49-191.05,1276.61-188,1278.67z"/>
		</g>
		<path class="st8" d="M578.93,939.47"/>
	</g>
</g>
<g id="Layer_34" class="st0">
</g>
<g id="Layer_35" class="st0">
</g>
<g id="Layer_33" class="st0">
</g>
<g id="Layer_37" class="st0">
</g>
<g id="Layer_33_copy" class="st0">
</g>
<g id="Layer_38" class="st0">
</g>
<g id="Layer_1">
</g>
</svg>
